<?xml version="1.0" encoding="UTF-8"?><svg id="Layer_1" xmlns="http://www.w3.org/2000/svg" viewBox="0 0 1308.52 1420.07"><defs><style>.cls-1{letter-spacing:2.1em;}.cls-2{fill:none;stroke:#1d1d1b;stroke-miterlimit:10;stroke-width:.5px;}.cls-3{letter-spacing:.45em;}.cls-4{letter-spacing:1.6em;}.cls-5{letter-spacing:1em;}.cls-6{fill:#1d1d1b;font-family:Consolas, Consolas;font-size:12px;}.cls-7{letter-spacing:-.1em;}.cls-8{letter-spacing:.2em;}.cls-9{letter-spacing:1.85em;}.cls-10{letter-spacing:-.05em;}.cls-11{letter-spacing:.25em;}.cls-12{letter-spacing:.75em;}.cls-13{letter-spacing:1.55em;}.cls-14{letter-spacing:-.35em;}.cls-15{letter-spacing:2.45em;}.cls-16{letter-spacing:2.4em;}.cls-17{letter-spacing:.5em;}.cls-18{letter-spacing:2.01em;}.cls-19{letter-spacing:2.15em;}.cls-20{letter-spacing:-.3em;}.cls-21{letter-spacing:1.3em;}</style></defs><text/><text class="cls-6" transform="translate(532.37 946.11)"><tspan x="0" y="0">OrderDetailId(PK) </tspan><tspan class="cls-13" x="118.76" y="0">	</tspan><tspan x="144" y="0">int IDENTITY(11) </tspan><tspan class="cls-1" x="256.16" y="0">	</tspan><tspan x="288" y="0">NOT NULL</tspan><tspan x="0" y="14.4">OrderId(FK) </tspan><tspan class="cls-9" x="79.17" y="14.4">	</tspan><tspan class="cls-15" x="108" y="14.4">	</tspan><tspan x="144" y="14.4">int </tspan><tspan class="cls-11" x="170.39" y="14.4">	</tspan><tspan class="cls-15" x="180" y="14.4" xml:space="preserve">			</tspan><tspan x="288" y="14.4">NOT NULL</tspan><tspan x="0" y="28.8">HardwareId(FK) </tspan><tspan class="cls-8" x="98.96" y="28.8">	</tspan><tspan class="cls-15" x="108" y="28.8">	</tspan><tspan x="144" y="28.8">int </tspan><tspan class="cls-11" x="170.39" y="28.8">	</tspan><tspan class="cls-15" x="180" y="28.8" xml:space="preserve">			</tspan><tspan x="288" y="28.8">NOT NULL</tspan><tspan x="0" y="57.6">Amount </tspan><tspan class="cls-4" x="46.18" y="57.6">	</tspan><tspan class="cls-15" x="72" y="57.6" xml:space="preserve">		</tspan><tspan x="144" y="57.6">int </tspan><tspan class="cls-11" x="170.39" y="57.6">	</tspan><tspan class="cls-15" x="180" y="57.6" xml:space="preserve">			</tspan><tspan x="288" y="57.6">NOT NULL</tspan><tspan x="0" y="72">Price </tspan><tspan class="cls-19" x="39.59" y="72">	</tspan><tspan class="cls-15" x="72" y="72" xml:space="preserve">		</tspan><tspan x="144" y="72">decimal(18 2) </tspan><tspan class="cls-12" x="236.37" y="72">	</tspan><tspan class="cls-15" x="252" y="72">	</tspan><tspan x="288" y="72">NOT NULL</tspan></text><text class="cls-6" transform="translate(532.03 684.69)"><tspan x="0" y="0">OrderId(PK) </tspan><tspan class="cls-9" x="79.17" y="0">	</tspan><tspan class="cls-15" x="108" y="0">	</tspan><tspan x="144" y="0">int IDENTITY(11) </tspan><tspan class="cls-1" x="256.16" y="0">	</tspan><tspan x="288" y="0">NOT NULL</tspan><tspan x="0" y="28.8">FirstName </tspan><tspan class="cls-10" x="65.98" y="28.8">	</tspan><tspan class="cls-15" x="72" y="28.8" xml:space="preserve">		</tspan><tspan x="144" y="28.8">nvarchar(25) </tspan><tspan class="cls-21" x="229.77" y="28.8">	</tspan><tspan class="cls-15" x="252" y="28.8">	</tspan><tspan x="288" y="28.8">NOT NULL</tspan><tspan x="0" y="43.2">LastName </tspan><tspan class="cls-17" x="59.38" y="43.2">	</tspan><tspan class="cls-15" x="72" y="43.2" xml:space="preserve">		</tspan><tspan x="144" y="43.2">nvarchar(50) </tspan><tspan class="cls-21" x="229.77" y="43.2">	</tspan><tspan class="cls-15" x="252" y="43.2">	</tspan><tspan x="288" y="43.2">NOT NULL</tspan><tspan x="0" y="57.6">Street </tspan><tspan class="cls-4" x="46.18" y="57.6">	</tspan><tspan class="cls-15" x="72" y="57.6" xml:space="preserve">		</tspan><tspan x="144" y="57.6">nvarchar(100) </tspan><tspan class="cls-12" x="236.37" y="57.6">	</tspan><tspan class="cls-15" x="252" y="57.6">	</tspan><tspan x="288" y="57.6">NOT NULL</tspan><tspan x="0" y="72">TownOrCity </tspan><tspan class="cls-16" x="72.57" y="72">	</tspan><tspan class="cls-15" x="108" y="72">	</tspan><tspan x="144" y="72">nvarchar(max) </tspan><tspan class="cls-12" x="236.37" y="72">	</tspan><tspan class="cls-15" x="252" y="72">	</tspan><tspan x="288" y="72">NOT NULL</tspan><tspan x="0" y="86.4">County </tspan><tspan class="cls-4" x="46.18" y="86.4">	</tspan><tspan class="cls-15" x="72" y="86.4" xml:space="preserve">		</tspan><tspan x="144" y="86.4">nvarchar(100) </tspan><tspan class="cls-12" x="236.37" y="86.4">	</tspan><tspan class="cls-15" x="252" y="86.4">	</tspan><tspan x="288" y="86.4">NOT NULL</tspan><tspan x="0" y="100.8">PostCode </tspan><tspan class="cls-17" x="59.38" y="100.8">	</tspan><tspan class="cls-15" x="72" y="100.8" xml:space="preserve">		</tspan><tspan x="144" y="100.8">nvarchar(7) </tspan><tspan class="cls-9" x="223.17" y="100.8">	</tspan><tspan class="cls-15" x="252" y="100.8">	</tspan><tspan x="288" y="100.8">NOT NULL</tspan><tspan x="0" y="115.2">PhoneNumber </tspan><tspan class="cls-9" x="79.17" y="115.2">	</tspan><tspan class="cls-15" x="108" y="115.2">	</tspan><tspan x="144" y="115.2">nvarchar(max) </tspan><tspan class="cls-12" x="236.37" y="115.2">	</tspan><tspan class="cls-15" x="252" y="115.2">	</tspan><tspan x="288" y="115.2">NOT NULL</tspan><tspan x="0" y="129.6">EmailAddress </tspan><tspan class="cls-21" x="85.77" y="129.6">	</tspan><tspan class="cls-15" x="108" y="129.6">	</tspan><tspan x="144" y="129.6">nvarchar(max) </tspan><tspan class="cls-12" x="236.37" y="129.6">	</tspan><tspan class="cls-15" x="252" y="129.6">	</tspan><tspan x="288" y="129.6">NOT NULL</tspan><tspan x="0" y="144">OrderTotal </tspan><tspan class="cls-16" x="72.57" y="144">	</tspan><tspan class="cls-15" x="108" y="144">	</tspan><tspan x="144" y="144">decimal(18 2) </tspan><tspan class="cls-12" x="236.37" y="144">	</tspan><tspan class="cls-15" x="252" y="144">	</tspan><tspan x="288" y="144">NOT NULL</tspan><tspan x="0" y="158.4">OrderPlaced </tspan><tspan class="cls-9" x="79.17" y="158.4">	</tspan><tspan class="cls-15" x="108" y="158.4">	</tspan><tspan x="144" y="158.4">datetime2(7) </tspan><tspan class="cls-21" x="229.77" y="158.4">	</tspan><tspan class="cls-15" x="252" y="158.4">	</tspan><tspan x="288" y="158.4">NOT NULL</tspan></text><rect class="cls-2" x="527.58" y="670.4" width="350.12" height="181.45"/><line class="cls-2" x1="527.58" y1="694.43" x2="877.7" y2="694.43"/><rect class="cls-2" x="527.58" y="932.3" width="350.12" height="95.29" rx="14.17" ry="14.17"/><line class="cls-2" x1="527.58" y1="984.35" x2="877.7" y2="984.35"/><text class="cls-6" transform="translate(533.4 1124.43)"><tspan x="0" y="0">HardwareId(PK) </tspan><tspan class="cls-8" x="98.96" y="0">	</tspan><tspan class="cls-15" x="108" y="0">	</tspan><tspan x="144" y="0">int IDENTITY(11) </tspan><tspan class="cls-1" x="256.16" y="0">	</tspan><tspan x="288" y="0">NOT NULL</tspan><tspan x="0" y="14.4">CategoryId(FK) </tspan><tspan class="cls-8" x="98.96" y="14.4">	</tspan><tspan class="cls-15" x="108" y="14.4">	</tspan><tspan x="144" y="14.4">int </tspan><tspan class="cls-11" x="170.39" y="14.4">	</tspan><tspan class="cls-15" x="180" y="14.4" xml:space="preserve">			</tspan><tspan x="288" y="14.4">NOT NULL</tspan><tspan x="0" y="43.2">Name </tspan><tspan class="cls-20" x="32.99" y="43.2">	</tspan><tspan class="cls-15" x="36" y="43.2" xml:space="preserve">			</tspan><tspan x="144" y="43.2">nvarchar(max) </tspan><tspan class="cls-12" x="236.37" y="43.2">	</tspan><tspan class="cls-15" x="252" y="43.2">	</tspan><tspan x="288" y="43.2">NULL</tspan><tspan x="0" y="57.6">Description </tspan><tspan class="cls-9" x="79.17" y="57.6">	</tspan><tspan class="cls-15" x="108" y="57.6">	</tspan><tspan x="144" y="57.6">nvarchar(max) </tspan><tspan class="cls-12" x="236.37" y="57.6">	</tspan><tspan class="cls-15" x="252" y="57.6">	</tspan><tspan x="288" y="57.6">NULL</tspan><tspan x="0" y="72">Price </tspan><tspan class="cls-19" x="39.59" y="72">	</tspan><tspan class="cls-15" x="72" y="72" xml:space="preserve">		</tspan><tspan x="144" y="72">decimal(18 2) </tspan><tspan class="cls-12" x="236.37" y="72">	</tspan><tspan class="cls-15" x="252" y="72">	</tspan><tspan x="288" y="72">NOT NULL</tspan><tspan x="0" y="86.4">ImageUrl </tspan><tspan class="cls-17" x="59.38" y="86.4">	</tspan><tspan class="cls-15" x="72" y="86.4" xml:space="preserve">		</tspan><tspan x="144" y="86.4">nvarchar(max) </tspan><tspan class="cls-12" x="236.37" y="86.4">	</tspan><tspan class="cls-15" x="252" y="86.4">	</tspan><tspan x="288" y="86.4">NULL</tspan><tspan x="0" y="100.8">ImageThumbnailUrl </tspan><tspan class="cls-13" x="118.76" y="100.8">	</tspan><tspan x="144" y="100.8">nvarchar(max) </tspan><tspan class="cls-12" x="236.37" y="100.8">	</tspan><tspan class="cls-15" x="252" y="100.8">	</tspan><tspan x="288" y="100.8">NULL</tspan><tspan x="0" y="115.2">IsOnSale </tspan><tspan class="cls-17" x="59.38" y="115.2">	</tspan><tspan class="cls-15" x="72" y="115.2" xml:space="preserve">		</tspan><tspan x="144" y="115.2">bit </tspan><tspan class="cls-11" x="170.39" y="115.2">	</tspan><tspan class="cls-15" x="180" y="115.2" xml:space="preserve">			</tspan><tspan x="288" y="115.2">NOT NULL</tspan><tspan x="0" y="129.6">IsInStock </tspan><tspan class="cls-10" x="65.98" y="129.6">	</tspan><tspan class="cls-15" x="72" y="129.6" xml:space="preserve">		</tspan><tspan x="144" y="129.6">bit </tspan><tspan class="cls-11" x="170.39" y="129.6">	</tspan><tspan class="cls-15" x="180" y="129.6" xml:space="preserve">			</tspan><tspan x="288" y="129.6">NOT NULL</tspan></text><rect class="cls-2" x="527.58" y="1108.04" width="350.12" height="154.16"/><line class="cls-2" x1="527.58" y1="1149.39" x2="877.7" y2="1149.39"/><text class="cls-6" transform="translate(961.68 1162.37)"><tspan x="0" y="0">ShoppingCartItemId(PK)int IDENTITY(11) </tspan><tspan class="cls-18" x="257.31" y="0">	</tspan><tspan x="288" y="0">NOT NULL</tspan><tspan x="0" y="14.4">HardwareId(FK) </tspan><tspan class="cls-8" x="98.96" y="14.4">	</tspan><tspan class="cls-15" x="108" y="14.4">	</tspan><tspan x="144" y="14.4">int </tspan><tspan class="cls-11" x="170.39" y="14.4">	</tspan><tspan class="cls-15" x="180" y="14.4" xml:space="preserve">			</tspan><tspan x="288" y="14.4">NULL</tspan><tspan x="0" y="43.2">ShoppingCartId </tspan><tspan class="cls-8" x="98.96" y="43.2">	</tspan><tspan class="cls-15" x="108" y="43.2">	</tspan><tspan x="144" y="43.2">nvarchar(max) </tspan><tspan class="cls-12" x="236.37" y="43.2">	</tspan><tspan class="cls-15" x="252" y="43.2">	</tspan><tspan x="288" y="43.2">NULL</tspan><tspan x="0" y="57.6">Amount </tspan><tspan class="cls-4" x="46.18" y="57.6">	</tspan><tspan class="cls-15" x="72" y="57.6" xml:space="preserve">		</tspan><tspan x="144" y="57.6">int </tspan><tspan class="cls-11" x="170.39" y="57.6">	</tspan><tspan class="cls-15" x="180" y="57.6" xml:space="preserve">			</tspan><tspan x="288" y="57.6">NOT NULL</tspan></text><rect class="cls-2" x="958.15" y="1145.99" width="350.12" height="85.29" rx="14.17" ry="14.17"/><line class="cls-2" x1="958.15" y1="1187.71" x2="1308.27" y2="1187.71"/><text class="cls-6" transform="translate(533.42 1358.84)"><tspan x="0" y="0">CategoryId(PK) </tspan><tspan class="cls-8" x="98.96" y="0">	</tspan><tspan class="cls-15" x="108" y="0">	</tspan><tspan x="144" y="0">int IDENTITY(11) </tspan><tspan class="cls-1" x="256.16" y="0">	</tspan><tspan x="288" y="0">NOT NULL</tspan><tspan x="0" y="28.8">CategoryName </tspan><tspan class="cls-21" x="85.77" y="28.8">	</tspan><tspan class="cls-15" x="108" y="28.8">	</tspan><tspan x="144" y="28.8">nvarchar(max) </tspan><tspan class="cls-12" x="236.37" y="28.8">	</tspan><tspan class="cls-15" x="252" y="28.8">	</tspan><tspan x="288" y="28.8">NULL</tspan><tspan x="0" y="43.2">CategoryDescription </tspan><tspan class="cls-3" x="131.95" y="43.2">	</tspan><tspan x="144" y="43.2">nvarchar(max) </tspan><tspan class="cls-12" x="236.37" y="43.2">	</tspan><tspan class="cls-15" x="252" y="43.2">	</tspan><tspan x="288" y="43.2">NULL</tspan></text><rect class="cls-2" x="527.58" y="1342.45" width="350.12" height="67.01" rx="14.17" ry="14.17"/><line class="cls-2" x1="527.58" y1="1366.49" x2="877.7" y2="1366.49"/><line class="cls-2" x1="702.64" y1="851.85" x2="702.64" y2="932.3"/><line class="cls-2" x1="702.64" y1="920.13" x2="714.81" y2="932.3"/><line class="cls-2" x1="702.64" y1="920.13" x2="690.47" y2="932.3"/><line class="cls-2" x1="690.47" y1="862.73" x2="714.81" y2="862.73"/><line class="cls-2" x1="702.64" y1="1108.04" x2="702.64" y2="1027.59"/><line class="cls-2" x1="702.64" y1="1039.76" x2="690.47" y2="1027.59"/><line class="cls-2" x1="702.64" y1="1039.76" x2="714.81" y2="1027.59"/><line class="cls-2" x1="714.81" y1="1097.16" x2="690.47" y2="1097.16"/><line class="cls-2" x1="702.64" y1="1342.65" x2="702.64" y2="1262.2"/><line class="cls-2" x1="702.64" y1="1274.37" x2="690.47" y2="1262.2"/><line class="cls-2" x1="702.64" y1="1274.37" x2="714.81" y2="1262.2"/><line class="cls-2" x1="714.81" y1="1331.77" x2="690.47" y2="1331.77"/><line class="cls-2" x1="877.7" y1="1191.17" x2="958.15" y2="1191.17"/><line class="cls-2" x1="945.98" y1="1191.17" x2="958.15" y2="1179"/><line class="cls-2" x1="945.98" y1="1191.17" x2="958.15" y2="1203.34"/><line class="cls-2" x1="888.58" y1="1203.34" x2="888.58" y2="1179"/><text class="cls-6" transform="translate(527.91 665.05)"><tspan x="0" y="0">ORDERS</tspan></text><text class="cls-6" transform="translate(527.58 926.21)"><tspan x="0" y="0">ORDERDETAILS</tspan></text><text class="cls-6" transform="translate(527.58 1103.21)"><tspan x="0" y="0">HARDWARES</tspan></text><text class="cls-6" transform="translate(528.23 1337.15)"><tspan x="0" y="0">CATEGORIES</tspan></text><text class="cls-6" transform="translate(958.15 1142.33)"><tspan x="0" y="0">SHOPPINGCARTITEMS</tspan></text><text class="cls-6" transform="translate(531.28 197.11)"><tspan x="0" y="0">Id(PK) </tspan><tspan class="cls-4" x="46.18" y="0">	</tspan><tspan class="cls-15" x="72" y="0" xml:space="preserve">		</tspan><tspan x="144" y="0">nvarchar(450) </tspan><tspan class="cls-12" x="236.37" y="0">	</tspan><tspan class="cls-15" x="252" y="0">	</tspan><tspan x="288" y="0">NOT NULL</tspan><tspan x="0" y="28.8">UserName </tspan><tspan class="cls-17" x="59.38" y="28.8">	</tspan><tspan class="cls-15" x="72" y="28.8" xml:space="preserve">		</tspan><tspan x="144" y="28.8">nvarchar(256) </tspan><tspan class="cls-12" x="236.37" y="28.8">	</tspan><tspan class="cls-15" x="252" y="28.8">	</tspan><tspan x="288" y="28.8">NULL</tspan><tspan x="0" y="43.2">NormalizedUserName </tspan><tspan class="cls-5" x="125.36" y="43.2">	</tspan><tspan x="144" y="43.2">nvarchar(256) </tspan><tspan class="cls-12" x="236.37" y="43.2">	</tspan><tspan class="cls-15" x="252" y="43.2">	</tspan><tspan x="288" y="43.2">NULL</tspan><tspan x="0" y="57.6">Email </tspan><tspan class="cls-19" x="39.59" y="57.6">	</tspan><tspan class="cls-15" x="72" y="57.6" xml:space="preserve">		</tspan><tspan x="144" y="57.6">nvarchar(256) </tspan><tspan class="cls-12" x="236.37" y="57.6">	</tspan><tspan class="cls-15" x="252" y="57.6">	</tspan><tspan x="288" y="57.6">NULL</tspan><tspan x="0" y="72">NormalizedEmail </tspan><tspan class="cls-14" x="105.56" y="72">	</tspan><tspan class="cls-15" x="108" y="72">	</tspan><tspan x="144" y="72">nvarchar(256) </tspan><tspan class="cls-12" x="236.37" y="72">	</tspan><tspan class="cls-15" x="252" y="72">	</tspan><tspan x="288" y="72">NULL</tspan><tspan x="0" y="86.4">EmailConfirmed </tspan><tspan class="cls-8" x="98.96" y="86.4">	</tspan><tspan class="cls-15" x="108" y="86.4">	</tspan><tspan x="144" y="86.4">bit </tspan><tspan class="cls-11" x="170.39" y="86.4">	</tspan><tspan class="cls-15" x="180" y="86.4" xml:space="preserve">			</tspan><tspan x="288" y="86.4">NOT NULL</tspan><tspan x="0" y="100.8">PasswordHash </tspan><tspan class="cls-21" x="85.77" y="100.8">	</tspan><tspan class="cls-15" x="108" y="100.8">	</tspan><tspan x="144" y="100.8">nvarchar(max) </tspan><tspan class="cls-12" x="236.37" y="100.8">	</tspan><tspan class="cls-15" x="252" y="100.8">	</tspan><tspan x="288" y="100.8">NULL</tspan><tspan x="0" y="115.2">SecurityStamp </tspan><tspan class="cls-12" x="92.37" y="115.2">	</tspan><tspan class="cls-15" x="108" y="115.2">	</tspan><tspan x="144" y="115.2">nvarchar(max) </tspan><tspan class="cls-12" x="236.37" y="115.2">	</tspan><tspan class="cls-15" x="252" y="115.2">	</tspan><tspan x="288" y="115.2">NULL</tspan><tspan x="0" y="129.6">ConcurrencyStamp </tspan><tspan class="cls-1" x="112.16" y="129.6">	</tspan><tspan x="144" y="129.6">nvarchar(max) </tspan><tspan class="cls-12" x="236.37" y="129.6">	</tspan><tspan class="cls-15" x="252" y="129.6">	</tspan><tspan x="288" y="129.6">NULL</tspan><tspan x="0" y="144">PhoneNumber </tspan><tspan class="cls-9" x="79.17" y="144">	</tspan><tspan class="cls-15" x="108" y="144">	</tspan><tspan x="144" y="144">nvarchar(max) </tspan><tspan class="cls-12" x="236.37" y="144">	</tspan><tspan class="cls-15" x="252" y="144">	</tspan><tspan x="288" y="144">NULL</tspan><tspan x="0" y="158.4">PhoneNumberConfirmed </tspan><tspan class="cls-7" x="138.55" y="158.4">	</tspan><tspan x="144" y="158.4">bit </tspan><tspan class="cls-11" x="170.39" y="158.4">	</tspan><tspan class="cls-15" x="180" y="158.4" xml:space="preserve">			</tspan><tspan x="288" y="158.4">NOT NULL</tspan><tspan x="0" y="172.8">TwoFactorEnabled </tspan><tspan class="cls-1" x="112.16" y="172.8">	</tspan><tspan x="144" y="172.8">bit </tspan><tspan class="cls-11" x="170.39" y="172.8">	</tspan><tspan class="cls-15" x="180" y="172.8" xml:space="preserve">			</tspan><tspan x="288" y="172.8">NOT NULL</tspan><tspan x="0" y="187.2">LockoutEnd </tspan><tspan class="cls-16" x="72.57" y="187.2">	</tspan><tspan class="cls-15" x="108" y="187.2">	</tspan><tspan x="144" y="187.2">datetimeoffset(7) </tspan><tspan class="cls-13" x="262.76" y="187.2">	</tspan><tspan x="288" y="187.2">NULL</tspan><tspan x="0" y="201.6">LockoutEnabled </tspan><tspan class="cls-8" x="98.96" y="201.6">	</tspan><tspan class="cls-15" x="108" y="201.6">	</tspan><tspan x="144" y="201.6">bit </tspan><tspan class="cls-11" x="170.39" y="201.6">	</tspan><tspan class="cls-15" x="180" y="201.6" xml:space="preserve">			</tspan><tspan x="288" y="201.6">NOT NULL</tspan><tspan x="0" y="216">AccessFailedCount </tspan><tspan class="cls-13" x="118.76" y="216">	</tspan><tspan x="144" y="216">int </tspan><tspan class="cls-11" x="170.39" y="216">	</tspan><tspan class="cls-15" x="180" y="216" xml:space="preserve">			</tspan><tspan x="288" y="216">NOT NULL</tspan></text><rect class="cls-2" x="525.72" y="179.94" width="350.12" height="237.49"/><line class="cls-2" x1="525.72" y1="207.04" x2="875.84" y2="207.04"/><text class="cls-6" transform="translate(530.3 33.85)"><tspan x="0" y="0">UserId(PK, FK)</tspan><tspan class="cls-12" x="92.37" y="0">	</tspan><tspan class="cls-15" x="108" y="0">	</tspan><tspan x="144" y="0">nvarchar(450) </tspan><tspan class="cls-12" x="236.37" y="0">	</tspan><tspan class="cls-15" x="252" y="0">	</tspan><tspan x="288" y="0">NOT NULL</tspan><tspan x="0" y="14.4">LoginProvider(PK) </tspan><tspan class="cls-13" x="118.76" y="14.4">	</tspan><tspan x="144" y="14.4">nvarchar(450) </tspan><tspan class="cls-12" x="236.37" y="14.4">	</tspan><tspan class="cls-15" x="252" y="14.4">	</tspan><tspan x="288" y="14.4">NOT NULL</tspan><tspan x="0" y="28.8">Name(PK) </tspan><tspan class="cls-17" x="59.38" y="28.8">	</tspan><tspan class="cls-15" x="72" y="28.8" xml:space="preserve">		</tspan><tspan x="144" y="28.8">nvarchar(450) </tspan><tspan class="cls-12" x="236.37" y="28.8">	</tspan><tspan class="cls-15" x="252" y="28.8">	</tspan><tspan x="288" y="28.8">NOT NULL</tspan><tspan x="0" y="57.6">Value </tspan><tspan class="cls-19" x="39.59" y="57.6">	</tspan><tspan class="cls-15" x="72" y="57.6" xml:space="preserve">		</tspan><tspan x="144" y="57.6">nvarchar(max) </tspan><tspan class="cls-12" x="236.37" y="57.6">	</tspan><tspan class="cls-15" x="252" y="57.6">	</tspan><tspan x="288" y="57.6">NULL</tspan></text><rect class="cls-2" x="525.09" y="16.32" width="350.12" height="83.03" rx="14.17" ry="14.17"/><line class="cls-2" x1="525.09" y1="73.8" x2="875.21" y2="73.8"/><text class="cls-6" transform="translate(525.09 9.83)"><tspan x="0" y="0">ASPNETUSERTOKENS</tspan></text><text class="cls-6" transform="translate(525.72 174.76)"><tspan x="0" y="0">ASPNETUSERS</tspan></text><text class="cls-6" transform="translate(531.28 514.37)"><tspan x="0" y="0">Id(PK) </tspan><tspan class="cls-4" x="46.18" y="0">	</tspan><tspan class="cls-15" x="72" y="0" xml:space="preserve">		</tspan><tspan x="144" y="0">int IDENTITY(11) </tspan><tspan class="cls-1" x="256.16" y="0">	</tspan><tspan x="288" y="0">NOT NULL</tspan><tspan x="0" y="28.8">UserId(FK) </tspan><tspan class="cls-16" x="72.57" y="28.8">	</tspan><tspan class="cls-15" x="108" y="28.8">	</tspan><tspan x="144" y="28.8">nvarchar(450) </tspan><tspan class="cls-12" x="236.37" y="28.8">	</tspan><tspan class="cls-15" x="252" y="28.8">	</tspan><tspan x="288" y="28.8">NOT NULL</tspan><tspan x="0" y="43.2">ClaimType </tspan><tspan class="cls-10" x="65.98" y="43.2">	</tspan><tspan class="cls-15" x="72" y="43.2" xml:space="preserve">		</tspan><tspan x="144" y="43.2">nvarchar(max) </tspan><tspan class="cls-12" x="236.37" y="43.2">	</tspan><tspan class="cls-15" x="252" y="43.2">	</tspan><tspan x="288" y="43.2">NULL</tspan><tspan x="0" y="57.6">ClaimValue </tspan><tspan class="cls-16" x="72.57" y="57.6">	</tspan><tspan class="cls-15" x="108" y="57.6">	</tspan><tspan x="144" y="57.6">nvarchar(max) </tspan><tspan class="cls-12" x="236.37" y="57.6">	</tspan><tspan class="cls-15" x="252" y="57.6">	</tspan><tspan x="288" y="57.6">NULL</tspan></text><line class="cls-2" x1="525.72" y1="526.93" x2="875.84" y2="526.93"/><rect class="cls-2" x="525.72" y="497.99" width="350.12" height="79.76"/><text class="cls-6" transform="translate(525.72 492.67)"><tspan x="0" y="0">ASPNETUSERCLAIMS</tspan></text><text class="cls-6" transform="translate(961.18 276.2)"><tspan x="0" y="0">LoginProvider(PK) </tspan><tspan class="cls-13" x="118.76" y="0">	</tspan><tspan x="144" y="0">nvarchar(450) </tspan><tspan class="cls-12" x="236.37" y="0">	</tspan><tspan class="cls-15" x="252" y="0">	</tspan><tspan x="288" y="0">NOT NULL</tspan><tspan x="0" y="14.4">ProviderKey(PK) </tspan><tspan class="cls-14" x="105.56" y="14.4">	</tspan><tspan class="cls-15" x="108" y="14.4">	</tspan><tspan x="144" y="14.4">nvarchar(450) </tspan><tspan class="cls-12" x="236.37" y="14.4">	</tspan><tspan class="cls-15" x="252" y="14.4">	</tspan><tspan x="288" y="14.4">NOT NULL</tspan><tspan x="0" y="28.8">UserId(FK) </tspan><tspan class="cls-16" x="72.57" y="28.8">	</tspan><tspan class="cls-15" x="108" y="28.8">	</tspan><tspan x="144" y="28.8">nvarchar(450) </tspan><tspan class="cls-12" x="236.37" y="28.8">	</tspan><tspan class="cls-15" x="252" y="28.8">	</tspan><tspan x="288" y="28.8">NOT NULL</tspan><tspan x="0" y="57.6">ProviderDisplayName </tspan><tspan class="cls-3" x="131.95" y="57.6">	</tspan><tspan x="144" y="57.6">nvarchar(max) </tspan><tspan class="cls-12" x="236.37" y="57.6">	</tspan><tspan class="cls-15" x="252" y="57.6">	</tspan><tspan x="288" y="57.6">NULL</tspan></text><rect class="cls-2" x="956.29" y="259.46" width="350.12" height="81.24" rx="14.17" ry="14.17"/><line class="cls-2" x1="956.29" y1="314.48" x2="1306.41" y2="314.48"/><text class="cls-6" transform="translate(956.29 253.19)"><tspan x="0" y="0">ASPNETUSERLOGINS</tspan></text><text class="cls-6" transform="translate(98.88 292.68)"><tspan x="0" y="0">UserId(PK, FK) </tspan><tspan class="cls-8" x="98.96" y="0">	</tspan><tspan class="cls-15" x="108" y="0">	</tspan><tspan x="144" y="0">nvarchar(450) </tspan><tspan class="cls-12" x="236.37" y="0">	</tspan><tspan class="cls-15" x="252" y="0">	</tspan><tspan x="288" y="0">NOT NULL</tspan><tspan x="0" y="14.4">RoleId(PK, FK)</tspan><tspan class="cls-12" x="92.37" y="14.4">	</tspan><tspan class="cls-15" x="108" y="14.4">	</tspan><tspan x="144" y="14.4">nvarchar(450) </tspan><tspan class="cls-12" x="236.37" y="14.4">	</tspan><tspan class="cls-15" x="252" y="14.4">	</tspan><tspan x="288" y="14.4">NOT NULL</tspan></text><rect class="cls-2" x="94.44" y="273.49" width="350.12" height="51.09" rx="14.17" ry="14.17"/><text class="cls-6" transform="translate(94.44 267.61)"><tspan x="0" y="0">ASPNETUSEROLES</tspan></text><text class="cls-6" transform="translate(100.69 423.1)"><tspan x="0" y="0">Id(PK) </tspan><tspan class="cls-4" x="46.18" y="0">	</tspan><tspan class="cls-15" x="72" y="0" xml:space="preserve">		</tspan><tspan x="144" y="0">nvarchar(450) </tspan><tspan class="cls-12" x="236.37" y="0">	</tspan><tspan class="cls-15" x="252" y="0">	</tspan><tspan x="288" y="0">NOT NULL</tspan><tspan x="0" y="28.8">Name </tspan><tspan class="cls-20" x="32.99" y="28.8">	</tspan><tspan class="cls-15" x="36" y="28.8" xml:space="preserve">			</tspan><tspan x="144" y="28.8">nvarchar(256) </tspan><tspan class="cls-12" x="236.37" y="28.8">	</tspan><tspan class="cls-15" x="252" y="28.8">	</tspan><tspan x="288" y="28.8">NULL</tspan><tspan x="0" y="43.2">NormalizedName </tspan><tspan class="cls-8" x="98.96" y="43.2">	</tspan><tspan class="cls-15" x="108" y="43.2">	</tspan><tspan x="144" y="43.2">nvarchar(256) </tspan><tspan class="cls-12" x="236.37" y="43.2">	</tspan><tspan class="cls-15" x="252" y="43.2">	</tspan><tspan x="288" y="43.2">NULL</tspan><tspan x="0" y="57.6">ConcurrencyStamp </tspan><tspan class="cls-1" x="112.16" y="57.6">	</tspan><tspan x="144" y="57.6">nvarchar(max) </tspan><tspan class="cls-12" x="236.37" y="57.6">	</tspan><tspan class="cls-15" x="252" y="57.6">	</tspan><tspan x="288" y="57.6">NULL</tspan></text><rect class="cls-2" x="93.7" y="405.39" width="350.12" height="81.24"/><line class="cls-2" x1="93.7" y1="436.3" x2="443.82" y2="436.3"/><text class="cls-6" transform="translate(93.7 399.51)"><tspan x="0" y="0">ASPNETROLES</tspan></text><text class="cls-6" transform="translate(99.38 582.7)"><tspan x="0" y="0">Id(PK) </tspan><tspan class="cls-4" x="46.18" y="0">	</tspan><tspan class="cls-15" x="72" y="0" xml:space="preserve">		</tspan><tspan x="144" y="0">int IDENTITY(11) </tspan><tspan class="cls-1" x="256.16" y="0">	</tspan><tspan x="288" y="0">NOT NULL</tspan><tspan x="0" y="14.4">RoleId(FK) </tspan><tspan class="cls-16" x="72.57" y="14.4">	</tspan><tspan class="cls-15" x="108" y="14.4">	</tspan><tspan x="144" y="14.4">nvarchar(450) </tspan><tspan class="cls-12" x="236.37" y="14.4">	</tspan><tspan class="cls-15" x="252" y="14.4">	</tspan><tspan x="288" y="14.4">NOT NULL</tspan><tspan x="0" y="43.2">ClaimType </tspan><tspan class="cls-10" x="65.98" y="43.2">	</tspan><tspan class="cls-15" x="72" y="43.2" xml:space="preserve">		</tspan><tspan x="144" y="43.2">nvarchar(max) </tspan><tspan class="cls-12" x="236.37" y="43.2">	</tspan><tspan class="cls-15" x="252" y="43.2">	</tspan><tspan x="288" y="43.2">NULL</tspan><tspan x="0" y="57.6">ClaimValue </tspan><tspan class="cls-16" x="72.57" y="57.6">	</tspan><tspan class="cls-15" x="108" y="57.6">	</tspan><tspan x="144" y="57.6">nvarchar(max) </tspan><tspan class="cls-12" x="236.37" y="57.6">	</tspan><tspan class="cls-15" x="252" y="57.6">	</tspan><tspan x="288" y="57.6">NULL</tspan></text><rect class="cls-2" x="94.44" y="567.46" width="350.12" height="81.24" rx="14.17" ry="14.17"/><line class="cls-2" x1="94.44" y1="607.61" x2="444.55" y2="607.61"/><text class="cls-6" transform="translate(94.44 562.02)"><tspan x="0" y="0">ASPNETROLECLAIMS</tspan></text><text class="cls-6" transform="translate(465.18 1312.17)"><tspan x="0" y="0">FK_Hardwares_Categories_CategoryId</tspan></text><text class="cls-6" transform="translate(714.81 1076.45)"><tspan x="0" y="0">FK_OrderDetails_Hardwares_HardwareId</tspan></text><text class="cls-6" transform="translate(493.45 1076.45)"><tspan x="0" y="0">FK_OrderDetails_Orders_OrderId</tspan></text><text class="cls-6" transform="translate(917.92 1262.2)"><tspan x="0" y="0">FK_ShoppingCartItems_Hardwares_HardwareId</tspan></text><line class="cls-2" x1="875.84" y1="297.9" x2="956.29" y2="297.9"/><line class="cls-2" x1="944.12" y1="297.9" x2="956.29" y2="285.73"/><line class="cls-2" x1="944.12" y1="297.9" x2="956.29" y2="310.08"/><line class="cls-2" x1="886.72" y1="310.08" x2="886.72" y2="285.73"/><line class="cls-2" x1="696.54" y1="417.43" x2="696.54" y2="497.88"/><line class="cls-2" x1="696.54" y1="485.71" x2="708.71" y2="497.88"/><line class="cls-2" x1="696.54" y1="485.71" x2="684.37" y2="497.88"/><line class="cls-2" x1="684.37" y1="428.31" x2="708.71" y2="428.31"/><line class="cls-2" x1="696.54" y1="179.87" x2="696.54" y2="99.42"/><line class="cls-2" x1="696.54" y1="111.59" x2="684.37" y2="99.42"/><line class="cls-2" x1="696.54" y1="111.59" x2="708.71" y2="99.42"/><line class="cls-2" x1="708.71" y1="168.99" x2="684.37" y2="168.99"/><line class="cls-2" x1="525" y1="297.9" x2="444.55" y2="297.9"/><line class="cls-2" x1="456.72" y1="297.9" x2="444.55" y2="310.08"/><line class="cls-2" x1="456.72" y1="297.9" x2="444.55" y2="285.73"/><line class="cls-2" x1="514.12" y1="285.73" x2="514.12" y2="310.08"/><line class="cls-2" x1="262.68" y1="405.03" x2="262.68" y2="324.58"/><line class="cls-2" x1="262.68" y1="336.75" x2="250.5" y2="324.58"/><line class="cls-2" x1="262.68" y1="336.75" x2="274.85" y2="324.58"/><line class="cls-2" x1="274.85" y1="394.15" x2="250.5" y2="394.15"/><line class="cls-2" x1="262.68" y1="486.71" x2="262.68" y2="567.16"/><line class="cls-2" x1="262.68" y1="554.99" x2="274.85" y2="567.16"/><line class="cls-2" x1="262.68" y1="554.99" x2="250.5" y2="567.16"/><line class="cls-2" x1="250.5" y1="497.59" x2="274.85" y2="497.59"/><text class="cls-6" transform="translate(0 534.45)"><tspan x="0" y="0">FK_AspNetRoleClaims_AspNetRoles_RoleId</tspan></text><text class="cls-6" transform="translate(708.71 460.42)"><tspan x="0" y="0">FK_AspNetUserClaims_AspNetUsers_UserId</tspan></text><text class="cls-6" transform="translate(902.19 364.81)"><tspan x="0" y="0">FK_AspNetUserLogins_AspNetUsers_UserId</tspan></text><text class="cls-6" transform="translate(0 361.55)"><tspan x="0" y="0">FK_AspNetUserRoles_AspNetRoles_RoleId</tspan></text><text class="cls-6" transform="translate(274.85 361.55)"><tspan x="0" y="0">FK_AspNetUserRoles_AspNetUsers_UserId</tspan></text><text class="cls-6" transform="translate(438.84 139.65)"><tspan x="0" y="0">FK_AspNetUserTokens_AspNetUsers_UserId</tspan></text></svg>