<?xml version="1.0" encoding="UTF-8"?><svg id="Layer_2" xmlns="http://www.w3.org/2000/svg" viewBox="0 0 749.64 916.73"><defs><style>.cls-1{letter-spacing:9.39em;}.cls-2{letter-spacing:0em;}.cls-3{letter-spacing:0em;}.cls-4{stroke-linecap:square;stroke-miterlimit:2;}.cls-4,.cls-5{fill:none;stroke:#000;stroke-width:.96px;}.cls-6{letter-spacing:0em;}.cls-7{letter-spacing:0em;}.cls-8{fill:#fff;}.cls-9{letter-spacing:0em;}.cls-10{letter-spacing:.01em;}.cls-11{letter-spacing:0em;}.cls-12{letter-spacing:0em;}.cls-13{letter-spacing:-.02em;}.cls-14{letter-spacing:.01em;}.cls-15{letter-spacing:0em;}.cls-16{letter-spacing:.01em;}.cls-17{letter-spacing:0em;}.cls-18{letter-spacing:.01em;}.cls-19{letter-spacing:0em;}.cls-20{letter-spacing:0em;}.cls-21{letter-spacing:-.01em;}.cls-22{letter-spacing:.01em;}.cls-23{letter-spacing:0em;}.cls-24{letter-spacing:.01em;}.cls-25{letter-spacing:5.13em;}.cls-26{letter-spacing:0em;}.cls-27{letter-spacing:0em;}.cls-28{letter-spacing:0em;}.cls-29{letter-spacing:0em;}.cls-30{letter-spacing:0em;}.cls-31{letter-spacing:0em;}.cls-32{letter-spacing:0em;}.cls-33{letter-spacing:6.82em;}.cls-34{letter-spacing:-.01em;}.cls-35{letter-spacing:0em;}.cls-36{letter-spacing:0em;}.cls-37{letter-spacing:0em;}.cls-38{letter-spacing:0em;}.cls-39{letter-spacing:0em;}.cls-40{letter-spacing:-.01em;}.cls-41{letter-spacing:0em;}.cls-42{letter-spacing:0em;}.cls-43{letter-spacing:0em;}.cls-44{letter-spacing:0em;}.cls-45{letter-spacing:0em;}.cls-46{letter-spacing:-.02em;}.cls-47{letter-spacing:.02em;}.cls-48{letter-spacing:0em;}.cls-49{letter-spacing:0em;}.cls-50{letter-spacing:0em;}.cls-51{letter-spacing:.01em;}.cls-52{letter-spacing:-.02em;}.cls-53{letter-spacing:0em;}.cls-54{letter-spacing:0em;}.cls-55{letter-spacing:0em;}.cls-56{letter-spacing:-.01em;}.cls-57{letter-spacing:0em;}.cls-58{letter-spacing:0em;}.cls-59{letter-spacing:0em;}.cls-60{letter-spacing:0em;}.cls-61{letter-spacing:-.01em;}.cls-62{letter-spacing:-.01em;}.cls-63{letter-spacing:0em;}.cls-64{letter-spacing:.01em;}.cls-5{stroke-linecap:round;stroke-linejoin:round;}.cls-65{letter-spacing:0em;}.cls-66{letter-spacing:-.02em;}.cls-67{letter-spacing:0em;}.cls-68{letter-spacing:0em;}.cls-69{letter-spacing:.01em;}.cls-70{letter-spacing:0em;}.cls-71{letter-spacing:0em;}.cls-72{letter-spacing:0em;}.cls-73{letter-spacing:0em;}.cls-74{letter-spacing:-.02em;}.cls-75{letter-spacing:.01em;}.cls-76{letter-spacing:0em;}.cls-77{letter-spacing:0em;}.cls-78{letter-spacing:0em;}.cls-79{font-family:CIDFont+F1, CIDFont+F1;font-size:8.52px;}.cls-80{letter-spacing:0em;}.cls-81{letter-spacing:0em;}.cls-82{letter-spacing:8.77em;}.cls-83{letter-spacing:0em;}.cls-84{letter-spacing:0em;}.cls-85{letter-spacing:.01em;}.cls-86{letter-spacing:-.02em;}.cls-87{letter-spacing:0em;}.cls-88{letter-spacing:0em;}.cls-89{letter-spacing:.01em;}.cls-90{letter-spacing:-.01em;}.cls-91{letter-spacing:0em;}.cls-92{letter-spacing:0em;}.cls-93{letter-spacing:0em;}.cls-94{letter-spacing:0em;}.cls-95{fill-rule:evenodd;}</style></defs><g id="Layer_1-2"><path class="cls-4" d="m38.88,77.69h23.88c4.56,0,8.28-3.72,8.28-8.28s-3.72-8.28-8.28-8.28h-23.88c-4.56,0-8.28,3.72-8.28,8.28s3.72,8.28,8.28,8.28Z"/><text class="cls-79" transform="translate(42.6 72.05)"><tspan x="0" y="0">S</tspan><tspan class="cls-59" x="4.2" y="0">t</tspan><tspan class="cls-50" x="6.99" y="0">ar</tspan><tspan x="13.9" y="0">t</tspan></text><line class="cls-5" x1="50.88" y1="77.69" x2="50.88" y2="95.81"/><polygon class="cls-95" points="54.36 94.97 50.88 102.05 47.28 94.97 54.36 94.97"/><rect class="cls-4" x="29.4" y="142.61" width="40.44" height="24.84"/><text class="cls-79" transform="translate(39 157.61)"><tspan class="cls-73" x="0" y="0">T</tspan><tspan class="cls-17" x="4.25" y="0">r</tspan><tspan x="6.97" y="0">i</tspan><tspan class="cls-50" x="8.96" y="0">a</tspan><tspan x="13.08" y="0">ge</tspan></text><polyline class="cls-5" points="79.56 205.73 100.92 205.73 100.92 179.81 120.36 179.81"/><polygon class="cls-95" points="119.52 176.33 126.48 179.81 119.52 183.29 119.52 176.33"/><rect class="cls-8" x="95.04" y="183.77" width="11.64" height="10.2"/><text class="cls-79" transform="translate(95.04 191.58)"><tspan class="cls-73" x="0" y="0">Ye</tspan><tspan x="8.91" y="0">s</tspan></text><polygon class="cls-4" points="19.68 205.73 49.68 183.65 79.56 205.73 49.68 227.93 19.68 205.73"/><text class="cls-79" transform="translate(34.56 203.33)"><tspan class="cls-43" x="0" y="0">R</tspan><tspan class="cls-44" x="4.57" y="0">e</tspan><tspan class="cls-77" x="8.85" y="0">qu</tspan><tspan x="18.26" y="0">i</tspan><tspan class="cls-37" x="20.25" y="0">r</tspan><tspan class="cls-28" x="23.05" y="0">e</tspan><tspan class="cls-92" x="27.26" y="0">s</tspan><tspan x="30.7" y="0"> </tspan></text><text class="cls-79" transform="translate(29.04 213.54)"><tspan class="cls-94" x="0" y="0">C</tspan><tspan class="cls-41" x="4.99" y="0">l</tspan><tspan class="cls-37" x="6.93" y="0">ar</tspan><tspan class="cls-70" x="13.84" y="0">i</tspan><tspan class="cls-41" x="15.83" y="0">fi</tspan><tspan class="cls-23" x="20.21" y="0">c</tspan><tspan class="cls-50" x="24.01" y="0">a</tspan><tspan class="cls-59" x="28.13" y="0">t</tspan><tspan class="cls-84" x="30.91" y="0">i</tspan><tspan class="cls-31" x="32.99" y="0">o</tspan><tspan x="37.61" y="0">n</tspan></text><line class="cls-5" x1="146.76" y1="192.17" x2="146.76" y2="196.97"/><polygon class="cls-95" points="150.24 196.13 146.76 203.21 143.16 196.13 150.24 196.13"/><rect class="cls-4" x="126.48" y="167.45" width="40.44" height="24.72"/><text class="cls-79" transform="translate(133.32 177.29)"><tspan class="cls-94" x="0" y="0">C</tspan><tspan class="cls-31" x="4.99" y="0">o</tspan><tspan class="cls-77" x="9.61" y="0">n</tspan><tspan class="cls-15" x="14.3" y="0">t</tspan><tspan class="cls-41" x="17.16" y="0">a</tspan><tspan class="cls-80" x="21.19" y="0">c</tspan><tspan class="cls-15" x="25.07" y="0">t</tspan><tspan x="27.93" y="0"> </tspan></text><text class="cls-79" transform="translate(129.72 187.49)"><tspan class="cls-37" x="0" y="0">r</tspan><tspan class="cls-73" x="2.79" y="0">e</tspan><tspan class="cls-76" x="7.08" y="0">qu</tspan><tspan class="cls-73" x="16.49" y="0">e</tspan><tspan class="cls-34" x="20.77" y="0">s</tspan><tspan class="cls-38" x="24.05" y="0">t</tspan><tspan class="cls-91" x="26.92" y="0">o</tspan><tspan class="cls-70" x="31.53" y="0">r</tspan></text><polygon class="cls-4" points="126.48 215.57 146.76 203.21 166.92 215.57 146.76 227.93 126.48 215.57"/><text class="cls-79" transform="translate(132.36 218.22)"><tspan class="cls-94" x="0" y="0">C</tspan><tspan class="cls-41" x="4.99" y="0">l</tspan><tspan class="cls-37" x="6.93" y="0">ar</tspan><tspan class="cls-70" x="13.84" y="0">i</tspan><tspan class="cls-41" x="15.83" y="0">fi</tspan><tspan class="cls-31" x="20.21" y="0">e</tspan><tspan x="24.42" y="0">d</tspan></text><line class="cls-5" x1="49.68" y1="167.45" x2="49.68" y2="177.41"/><polygon class="cls-95" points="53.16 176.57 49.68 183.65 46.08 176.57 53.16 176.57"/><polyline class="cls-5" points="166.92 215.57 181.08 215.57 181.08 154.97 75.96 154.97"/><polygon class="cls-95" points="76.92 158.57 69.84 154.97 76.92 151.49 76.92 158.57"/><rect class="cls-8" x="93.84" y="150.89" width="11.64" height="10.2"/><text class="cls-79" transform="translate(93.84 158.57)"><tspan class="cls-73" x="0" y="0">Ye</tspan><tspan x="8.91" y="0">s</tspan></text><polyline class="cls-5" points="49.68 227.93 49.68 323.93 206.4 323.93"/><polygon class="cls-95" points="205.56 320.45 212.64 323.93 205.56 327.53 205.56 320.45"/><rect class="cls-8" x="166.08" y="317.93" width="9.96" height="10.2"/><text class="cls-79" transform="translate(166.2 325.62)"><tspan class="cls-27" x="0" y="0">N</tspan><tspan x="5.64" y="0">o</tspan></text><rect class="cls-4" x="228.6" y="245.81" width="40.44" height="24.72"/><text class="cls-79" transform="translate(237.12 250.61)"><tspan class="cls-93" x="0" y="0">I</tspan><tspan class="cls-77" x="2.03" y="0">n</tspan><tspan class="cls-49" x="6.71" y="0">f</tspan><tspan class="cls-19" x="9.24" y="0">o</tspan><tspan class="cls-37" x="13.93" y="0">r</tspan><tspan class="cls-7" x="16.73" y="0">m</tspan><tspan x="23.76" y="0"> </tspan></text><text class="cls-79" transform="translate(231.24 260.82)"><tspan class="cls-43" x="0" y="0">R</tspan><tspan class="cls-44" x="4.57" y="0">e</tspan><tspan class="cls-77" x="8.85" y="0">qu</tspan><tspan class="cls-44" x="18.26" y="0">e</tspan><tspan class="cls-93" x="22.55" y="0">s</tspan><tspan class="cls-38" x="25.91" y="0">t</tspan><tspan class="cls-31" x="28.77" y="0">e</tspan><tspan x="32.98" y="0">r</tspan></text><text class="cls-79" transform="translate(246.96 271.01)"><tspan x="0" y="0">?</tspan></text><polygon class="cls-4" points="212.64 323.93 248.88 301.37 285 323.93 248.88 346.61 212.64 323.93"/><text class="cls-79" transform="translate(231 316.38)"><tspan class="cls-73" x="0" y="0">T</tspan><tspan class="cls-41" x="4.25" y="0">a</tspan><tspan class="cls-15" x="8.28" y="0">k</tspan><tspan class="cls-73" x="12.32" y="0">e</tspan><tspan class="cls-76" x="16.61" y="0">d</tspan><tspan class="cls-91" x="21.37" y="0">o</tspan><tspan class="cls-38" x="25.99" y="0">w</tspan><tspan class="cls-77" x="32.3" y="0">n</tspan><tspan x="36.99" y="0"> </tspan></text><text class="cls-79" transform="translate(234.6 326.58)"><tspan class="cls-37" x="0" y="0">r</tspan><tspan class="cls-31" x="2.79" y="0">e</tspan><tspan x="7" y="0">l</tspan><tspan class="cls-28" x="9.01" y="0">e</tspan><tspan class="cls-93" x="13.22" y="0">v</tspan><tspan class="cls-37" x="17.31" y="0">a</tspan><tspan class="cls-22" x="21.43" y="0">n</tspan><tspan class="cls-56" x="26.28" y="0">t</tspan><tspan x="28.98" y="0"> </tspan></text><text class="cls-79" transform="translate(235.44 336.77)"><tspan class="cls-23" x="0" y="0">c</tspan><tspan class="cls-31" x="3.8" y="0">o</tspan><tspan class="cls-22" x="8.42" y="0">n</tspan><tspan class="cls-56" x="13.27" y="0">t</tspan><tspan class="cls-73" x="15.97" y="0">e</tspan><tspan class="cls-49" x="20.25" y="0">n</tspan><tspan class="cls-36" x="25.02" y="0">t</tspan></text><line class="cls-5" x1="146.76" y1="227.93" x2="146.76" y2="239.57"/><polygon class="cls-95" points="150.24 238.73 146.76 245.81 143.16 238.73 150.24 238.73"/><rect class="cls-8" x="141.72" y="232.13" width="9.96" height="10.2"/><text class="cls-79" transform="translate(141.72 239.93)"><tspan class="cls-27" x="0" y="0">N</tspan><tspan x="5.64" y="0">o</tspan></text><path class="cls-4" d="m134.76,317.93h23.88c4.56,0,8.28-3.72,8.28-8.28s-3.72-8.28-8.28-8.28h-23.88c-4.56,0-8.28,3.72-8.28,8.28s3.72,8.28,8.28,8.28Z"/><text class="cls-79" transform="translate(138.96 312.29)"><tspan x="0" y="0">S</tspan><tspan class="cls-59" x="4.2" y="0">t</tspan><tspan class="cls-73" x="6.99" y="0">o</tspan><tspan x="11.68" y="0">p</tspan></text><polygon class="cls-4" points="20.88 126.41 80.76 126.41 80.76 93.89 20.88 110.21 20.88 126.41"/><text class="cls-79" transform="translate(28.68 115.85)"><tspan class="cls-38" x="0" y="0">M</tspan><tspan class="cls-52" x="6.89" y="0">a</tspan><tspan class="cls-18" x="10.85" y="0">n</tspan><tspan class="cls-35" x="15.69" y="0">u</tspan><tspan class="cls-37" x="20.35" y="0">a</tspan><tspan class="cls-41" x="24.46" y="0">l</tspan><tspan class="cls-48" x="26.4" y="0"> </tspan><tspan class="cls-27" x="28.23" y="0">D</tspan><tspan class="cls-50" x="33.94" y="0">a</tspan><tspan class="cls-56" x="38.05" y="0">t</tspan><tspan class="cls-50" x="40.75" y="0">a</tspan><tspan x="44.87" y="0"> </tspan></text><text class="cls-79" transform="translate(41.76 126.05)"><tspan class="cls-93" x="0" y="0">I</tspan><tspan class="cls-77" x="2.03" y="0">n</tspan><tspan class="cls-27" x="6.71" y="0">p</tspan><tspan class="cls-77" x="11.6" y="0">u</tspan><tspan x="16.25" y="0">t</tspan></text><polyline class="cls-5" points="50.88 126.41 50.88 131.81 49.68 131.81 49.68 136.49"/><polygon class="cls-95" points="53.16 135.65 49.68 142.61 46.08 135.65 53.16 135.65"/><polygon class="cls-4" points="218.88 414.89 278.88 414.89 278.88 357.77 218.88 374.81 218.88 414.89"/><text class="cls-79" transform="translate(226.2 382.14)"><tspan class="cls-43" x="0" y="0">R</tspan><tspan class="cls-44" x="4.57" y="0">e</tspan><tspan class="cls-23" x="8.85" y="0">c</tspan><tspan class="cls-19" x="12.65" y="0">o</tspan><tspan class="cls-37" x="17.35" y="0">r</tspan><tspan class="cls-77" x="20.14" y="0">d</tspan><tspan class="cls-87" x="24.91" y="0"> </tspan><tspan x="26.66" y="0">i</tspan><tspan class="cls-77" x="28.65" y="0">n</tspan><tspan class="cls-84" x="33.34" y="0">i</tspan><tspan class="cls-56" x="35.42" y="0">t</tspan><tspan class="cls-16" x="38.12" y="0">i</tspan><tspan class="cls-50" x="40.2" y="0">a</tspan><tspan class="cls-70" x="44.32" y="0">l </tspan></text><text class="cls-79" transform="translate(231.72 392.33)"><tspan class="cls-15" x="0" y="0">t</tspan><tspan class="cls-37" x="2.86" y="0">a</tspan><tspan class="cls-59" x="6.98" y="0">k</tspan><tspan class="cls-31" x="10.94" y="0">e</tspan><tspan class="cls-77" x="15.15" y="0">d</tspan><tspan class="cls-69" x="19.91" y="0">o</tspan><tspan class="cls-56" x="24.69" y="0">w</tspan><tspan class="cls-77" x="30.84" y="0">n</tspan><tspan x="35.53" y="0"> </tspan></text><text class="cls-79" transform="translate(227.88 402.53)"><tspan class="cls-50" x="0" y="0">a</tspan><tspan class="cls-23" x="4.12" y="0">c</tspan><tspan class="cls-15" x="7.92" y="0">t</tspan><tspan class="cls-41" x="10.78" y="0">i</tspan><tspan class="cls-73" x="12.7" y="0">o</tspan><tspan class="cls-77" x="17.39" y="0">n</tspan><tspan class="cls-87" x="22.08" y="0"> </tspan><tspan class="cls-18" x="23.83" y="0">d</tspan><tspan class="cls-50" x="28.76" y="0">a</tspan><tspan class="cls-56" x="32.87" y="0">t</tspan><tspan class="cls-31" x="35.57" y="0">e</tspan><tspan x="39.78" y="0">/</tspan></text><text class="cls-79" transform="translate(241.08 412.74)"><tspan class="cls-15" x="0" y="0">t</tspan><tspan class="cls-41" x="2.86" y="0">i</tspan><tspan class="cls-89" x="4.78" y="0">m</tspan><tspan x="11.98" y="0">e</tspan></text><polyline class="cls-5" points="248.88 346.61 248.88 351.89 248.88 360.17"/><polygon class="cls-95" points="252.36 359.21 248.88 366.29 245.4 359.21 252.36 359.21"/><rect class="cls-4" x="318.6" y="241.49" width="40.44" height="44.4"/><text class="cls-79" transform="translate(322.08 250.98)"><tspan class="cls-93" x="0" y="0">I</tspan><tspan class="cls-77" x="2.03" y="0">n</tspan><tspan class="cls-63" x="6.71" y="0">v</tspan><tspan class="cls-31" x="10.88" y="0">e</tspan><tspan class="cls-78" x="15.09" y="0">s</tspan><tspan class="cls-15" x="18.46" y="0">t</tspan><tspan class="cls-70" x="21.32" y="0">i</tspan><tspan class="cls-65" x="23.31" y="0">g</tspan><tspan class="cls-37" x="27.99" y="0">a</tspan><tspan class="cls-36" x="32.11" y="0">t</tspan></text><text class="cls-79" transform="translate(329.28 261.17)"><tspan class="cls-31" x="0" y="0">e</tspan><tspan class="cls-48" x="4.21" y="0"> </tspan><tspan class="cls-50" x="6.04" y="0">a</tspan><tspan class="cls-77" x="10.16" y="0">n</tspan><tspan class="cls-49" x="14.84" y="0">d</tspan><tspan x="19.68" y="0"> </tspan></text><text class="cls-79" transform="translate(328.44 271.37)"><tspan class="cls-23" x="0" y="0">c</tspan><tspan x="3.8" y="0">l</tspan><tspan class="cls-50" x="5.81" y="0">ar</tspan><tspan class="cls-41" x="12.72" y="0">i</tspan><tspan class="cls-27" x="14.64" y="0">f</tspan><tspan class="cls-23" x="17.16" y="0">y</tspan><tspan x="21.16" y="0"> </tspan></text><text class="cls-79" transform="translate(321.6 281.58)"><tspan class="cls-23" x="0" y="0">c</tspan><tspan class="cls-31" x="3.8" y="0">o</tspan><tspan class="cls-51" x="8.42" y="0">m</tspan><tspan class="cls-77" x="15.62" y="0">p</tspan><tspan class="cls-41" x="20.42" y="0">l</tspan><tspan class="cls-37" x="22.36" y="0">a</tspan><tspan class="cls-16" x="26.47" y="0">i</tspan><tspan class="cls-76" x="28.55" y="0">n</tspan><tspan class="cls-36" x="33.24" y="0">t</tspan></text><polygon class="cls-4" points="308.88 365.93 338.88 343.85 368.76 365.93 338.88 388.13 308.88 365.93"/><text class="cls-79" transform="translate(323.76 363.53)"><tspan class="cls-43" x="0" y="0">R</tspan><tspan class="cls-44" x="4.57" y="0">e</tspan><tspan class="cls-77" x="8.85" y="0">qu</tspan><tspan x="18.26" y="0">i</tspan><tspan class="cls-37" x="20.25" y="0">r</tspan><tspan class="cls-44" x="23.05" y="0">e</tspan><tspan class="cls-93" x="27.33" y="0">s</tspan><tspan x="30.7" y="0"> </tspan></text><text class="cls-79" transform="translate(318.24 373.74)"><tspan class="cls-94" x="0" y="0">C</tspan><tspan class="cls-41" x="4.99" y="0">l</tspan><tspan class="cls-37" x="6.93" y="0">ar</tspan><tspan class="cls-70" x="13.84" y="0">i</tspan><tspan class="cls-41" x="15.83" y="0">fi</tspan><tspan class="cls-23" x="20.21" y="0">c</tspan><tspan class="cls-50" x="24.01" y="0">a</tspan><tspan class="cls-59" x="28.13" y="0">t</tspan><tspan class="cls-84" x="30.91" y="0">i</tspan><tspan class="cls-31" x="32.99" y="0">o</tspan><tspan x="37.61" y="0">n</tspan></text><polyline class="cls-5" points="278.88 386.33 292.2 386.33 292.2 263.69 312.48 263.69"/><polygon class="cls-95" points="311.64 260.21 318.6 263.69 311.64 267.17 311.64 260.21"/><rect class="cls-4" x="484.56" y="582.29" width="40.32" height="22.32"/><text class="cls-79" transform="translate(493.08 590.94)"><tspan class="cls-78" x="0" y="0">I</tspan><tspan class="cls-35" x="2.03" y="0">n</tspan><tspan class="cls-27" x="6.71" y="0">f</tspan><tspan class="cls-44" x="9.24" y="0">o</tspan><tspan class="cls-50" x="13.93" y="0">r</tspan><tspan class="cls-17" x="16.73" y="0">m</tspan><tspan x="23.76" y="0"> </tspan></text><text class="cls-79" transform="translate(487.8 601.14)"><tspan class="cls-50" x="0" y="0">r</tspan><tspan class="cls-68" x="2.8" y="0">e</tspan><tspan class="cls-27" x="7" y="0">q</tspan><tspan class="cls-35" x="11.84" y="0">u</tspan><tspan class="cls-44" x="16.49" y="0">e</tspan><tspan class="cls-34" x="20.77" y="0">s</tspan><tspan class="cls-3" x="24.05" y="0">t</tspan><tspan class="cls-31" x="26.92" y="0">o</tspan><tspan x="31.53" y="0">r</tspan></text><polygon class="cls-4" points="465.48 561.53 543.96 561.53 543.96 517.25 465.48 534.17 465.48 561.53"/><text class="cls-79" transform="translate(476.4 540.3)"><tspan class="cls-32" x="0" y="0">R</tspan><tspan class="cls-19" x="4.57" y="0">e</tspan><tspan class="cls-32" x="8.85" y="0">c</tspan><tspan class="cls-44" x="12.65" y="0">o</tspan><tspan class="cls-42" x="17.35" y="0">r</tspan><tspan class="cls-76" x="20.14" y="0">d</tspan><tspan class="cls-6" x="24.91" y="0"> </tspan><tspan class="cls-68" x="26.66" y="0">T</tspan><tspan class="cls-72" x="30.84" y="0">D</tspan><tspan class="cls-57" x="36.55" y="0"> </tspan><tspan class="cls-35" x="38.38" y="0">p</tspan><tspan class="cls-50" x="43.18" y="0">a</tspan><tspan class="cls-76" x="47.3" y="0">n</tspan><tspan class="cls-14" x="51.98" y="0">e</tspan><tspan class="cls-20" x="56.36" y="0">l</tspan><tspan class="cls-58" x="58.29" y="0"> </tspan></text><text class="cls-79" transform="translate(479.64 550.5)"><tspan class="cls-76" x="0" y="0">d</tspan><tspan x="4.76" y="0">i</tspan><tspan class="cls-54" x="6.76" y="0">s</tspan><tspan class="cls-32" x="10.12" y="0">c</tspan><tspan class="cls-76" x="13.92" y="0">u</tspan><tspan class="cls-92" x="18.57" y="0">s</tspan><tspan class="cls-78" x="22.02" y="0">s</tspan><tspan x="25.38" y="0">i</tspan><tspan class="cls-31" x="27.38" y="0">o</tspan><tspan class="cls-27" x="31.99" y="0">n</tspan><tspan class="cls-48" x="36.76" y="0"> </tspan><tspan class="cls-20" x="38.59" y="0">a</tspan><tspan class="cls-27" x="42.62" y="0">n</tspan><tspan class="cls-76" x="47.38" y="0">d</tspan><tspan x="52.15" y="0"> </tspan></text><text class="cls-79" transform="translate(477.6 560.7)"><tspan class="cls-50" x="0" y="0">a</tspan><tspan class="cls-65" x="4.12" y="0">g</tspan><tspan class="cls-75" x="8.79" y="0">r</tspan><tspan class="cls-31" x="11.67" y="0">ee</tspan><tspan class="cls-18" x="20.09" y="0">d</tspan><tspan class="cls-26" x="25.02" y="0"> </tspan><tspan class="cls-76" x="26.77" y="0">d</tspan><tspan class="cls-44" x="31.53" y="0">e</tspan><tspan class="cls-32" x="35.82" y="0">c</tspan><tspan class="cls-83" x="39.62" y="0">i</tspan><tspan class="cls-92" x="41.54" y="0">s</tspan><tspan class="cls-83" x="44.98" y="0">i</tspan><tspan class="cls-64" x="46.9" y="0">o</tspan><tspan x="51.68" y="0">n</tspan></text><line class="cls-5" x1="248.88" y1="301.37" x2="248.88" y2="276.77"/><polygon class="cls-95" points="245.28 277.61 248.88 270.53 252.36 277.61 245.28 277.61"/><polyline class="cls-5" points="338.88 388.13 338.88 493.73 474.12 493.73"/><polygon class="cls-95" points="473.16 490.25 480.24 493.73 473.16 497.21 473.16 490.25"/><line class="cls-5" x1="504.72" y1="561.53" x2="504.72" y2="576.05"/><polygon class="cls-95" points="508.2 575.21 504.72 582.29 501.24 575.21 508.2 575.21"/><polygon class="cls-4" points="131.76 290.09 161.64 290.09 176.64 245.81 116.76 245.81 131.76 290.09"/><text class="cls-79" transform="translate(134.28 255.29)"><tspan class="cls-43" x="0" y="0">R</tspan><tspan class="cls-44" x="4.57" y="0">e</tspan><tspan class="cls-78" x="8.85" y="0">v</tspan><tspan x="12.94" y="0">i</tspan><tspan class="cls-31" x="14.94" y="0">e</tspan><tspan class="cls-15" x="19.15" y="0">w</tspan><tspan x="25.46" y="0"> </tspan></text><text class="cls-79" transform="translate(140.28 265.5)"><tspan class="cls-50" x="0" y="0">a</tspan><tspan class="cls-77" x="4.12" y="0">nd</tspan><tspan x="13.56" y="0"> </tspan></text><text class="cls-79" transform="translate(133.8 275.69)"><tspan class="cls-50" x="0" y="0">ma</tspan><tspan class="cls-76" x="11.23" y="0">nu</tspan><tspan class="cls-50" x="20.57" y="0">a</tspan><tspan x="24.68" y="0">l </tspan></text><text class="cls-79" transform="translate(138 285.89)"><tspan class="cls-23" x="0" y="0">c</tspan><tspan x="3.8" y="0">l</tspan><tspan class="cls-73" x="5.81" y="0">o</tspan><tspan class="cls-34" x="10.51" y="0">s</tspan><tspan x="13.79" y="0">e</tspan></text><line class="cls-5" x1="146.76" y1="290.09" x2="146.76" y2="295.25"/><polygon class="cls-95" points="150.24 294.41 146.76 301.37 143.16 294.41 150.24 294.41"/><polygon class="cls-4" points="465.48 666.41 543.96 666.41 543.96 622.01 465.48 639.05 465.48 666.41"/><text class="cls-79" transform="translate(475.8 645.18)"><tspan class="cls-55" x="0" y="0">C</tspan><tspan class="cls-12" x="4.99" y="0">ar</tspan><tspan class="cls-42" x="11.75" y="0">r</tspan><tspan class="cls-43" x="14.54" y="0">y</tspan><tspan class="cls-48" x="18.54" y="0"> </tspan><tspan class="cls-68" x="20.37" y="0">o</tspan><tspan class="cls-10" x="24.99" y="0">u</tspan><tspan class="cls-61" x="29.81" y="0">t</tspan><tspan class="cls-9" x="32.51" y="0"> </tspan><tspan class="cls-83" x="34.34" y="0">a</tspan><tspan class="cls-30" x="38.37" y="0">g</tspan><tspan class="cls-17" x="43.21" y="0">r</tspan><tspan class="cls-14" x="45.93" y="0">e</tspan><tspan class="cls-68" x="50.3" y="0">e</tspan><tspan class="cls-76" x="54.51" y="0">d</tspan><tspan x="59.27" y="0"> </tspan></text><text class="cls-79" transform="translate(472.68 655.38)"><tspan class="cls-50" x="0" y="0">a</tspan><tspan class="cls-32" x="4.12" y="0">c</tspan><tspan class="cls-3" x="7.92" y="0">t</tspan><tspan class="cls-83" x="10.78" y="0">i</tspan><tspan class="cls-44" x="12.7" y="0">o</tspan><tspan class="cls-35" x="17.39" y="0">n</tspan><tspan class="cls-78" x="22.08" y="0">s</tspan><tspan class="cls-9" x="25.44" y="0"> </tspan><tspan class="cls-42" x="27.27" y="0">a</tspan><tspan class="cls-35" x="31.39" y="0">nd</tspan><tspan class="cls-26" x="40.84" y="0"> </tspan><tspan class="cls-89" x="42.59" y="0">r</tspan><tspan class="cls-31" x="45.47" y="0">e</tspan><tspan class="cls-32" x="49.68" y="0">c</tspan><tspan class="cls-64" x="53.48" y="0">o</tspan><tspan class="cls-52" x="58.26" y="0">r</tspan><tspan class="cls-18" x="60.9" y="0">d</tspan><tspan x="65.82" y="0"> </tspan></text><text class="cls-79" transform="translate(485.16 665.58)"><tspan class="cls-32" x="0" y="0">c</tspan><tspan class="cls-31" x="3.8" y="0">o</tspan><tspan class="cls-89" x="8.42" y="0">m</tspan><tspan class="cls-76" x="15.62" y="0">p</tspan><tspan class="cls-83" x="20.42" y="0">l</tspan><tspan class="cls-64" x="22.36" y="0">e</tspan><tspan class="cls-56" x="26.73" y="0">t</tspan><tspan class="cls-24" x="29.43" y="0">i</tspan><tspan class="cls-68" x="31.51" y="0">o</tspan><tspan x="36.13" y="0">n</tspan></text><line class="cls-5" x1="504.72" y1="604.61" x2="504.72" y2="624.41"/><polygon class="cls-95" points="508.2 623.45 504.72 630.53 501.24 623.45 508.2 623.45"/><path class="cls-4" d="m480.24,505.01v-26.28h48.96v26.28c-7.44-5.04-17.04-5.04-24.48,0-7.32,5.04-17.04,5.04-24.48,0Z"/><text class="cls-79" transform="translate(482.52 487.5)"><tspan class="cls-9" x="0" y="0">P</tspan><tspan class="cls-17" x="4.56" y="0">r</tspan><tspan class="cls-64" x="7.28" y="0">e</tspan><tspan class="cls-35" x="11.65" y="0">p</tspan><tspan class="cls-50" x="16.45" y="0">a</tspan><tspan class="cls-13" x="20.57" y="0">r</tspan><tspan class="cls-14" x="23.2" y="0">e</tspan><tspan class="cls-48" x="27.57" y="0"> </tspan><tspan class="cls-32" x="29.4" y="0">c</tspan><tspan class="cls-52" x="33.21" y="0">a</tspan><tspan class="cls-60" x="37.16" y="0">s</tspan><tspan class="cls-31" x="40.6" y="0">e</tspan><tspan x="44.81" y="0"> </tspan></text><text class="cls-79" transform="translate(483.6 497.7)"><tspan class="cls-27" x="0" y="0">f</tspan><tspan class="cls-31" x="2.52" y="0">o</tspan><tspan class="cls-50" x="7.14" y="0">r</tspan><tspan class="cls-48" x="9.94" y="0"> </tspan><tspan class="cls-31" x="11.77" y="0">T</tspan><tspan class="cls-27" x="15.94" y="0">D</tspan><tspan class="cls-6" x="21.65" y="0"> </tspan><tspan class="cls-76" x="23.41" y="0">p</tspan><tspan class="cls-50" x="28.21" y="0">a</tspan><tspan class="cls-76" x="32.33" y="0">n</tspan><tspan class="cls-19" x="37.01" y="0">e</tspan><tspan x="41.3" y="0">l</tspan></text><line class="cls-5" x1="504.72" y1="505.01" x2="504.72" y2="519.53"/><polygon class="cls-95" points="508.2 518.69 504.72 525.65 501.24 518.69 508.2 518.69"/><polygon class="cls-4" points="474.72 701.33 504.72 683.81 534.72 701.33 504.72 718.85 474.72 701.33"/><text class="cls-79" transform="translate(487.08 698.82)"><tspan class="cls-32" x="0" y="0">R</tspan><tspan class="cls-19" x="4.57" y="0">e</tspan><tspan class="cls-76" x="8.85" y="0">qu</tspan><tspan class="cls-19" x="18.26" y="0">e</tspan><tspan class="cls-78" x="22.55" y="0">s</tspan><tspan class="cls-3" x="25.91" y="0">t</tspan><tspan class="cls-31" x="28.77" y="0">e</tspan><tspan class="cls-50" x="32.98" y="0">r</tspan><tspan class="cls-29" x="35.78" y="0"> </tspan></text><text class="cls-79" transform="translate(488.88 709.02)"><tspan class="cls-55" x="0" y="0">C</tspan><tspan class="cls-31" x="4.99" y="0">o</tspan><tspan class="cls-76" x="9.61" y="0">n</tspan><tspan class="cls-15" x="14.3" y="0">t</tspan><tspan class="cls-31" x="17.16" y="0">e</tspan><tspan class="cls-27" x="21.37" y="0">n</tspan><tspan class="cls-88" x="26.13" y="0">t</tspan><tspan x="28.92" y="0">?</tspan></text><line class="cls-5" x1="504.72" y1="718.85" x2="504.72" y2="749.57"/><polygon class="cls-95" points="508.2 748.61 504.72 755.69 501.24 748.61 508.2 748.61"/><rect class="cls-8" x="498.84" y="728.33" width="11.64" height="10.2"/><text class="cls-79" transform="translate(498.84 736.02)"><tspan class="cls-44" x="0" y="0">Ye</tspan><tspan class="cls-29" x="8.91" y="0">s</tspan></text><path class="cls-4" d="m492.84,842.33h23.88c4.56,0,8.16-3.72,8.16-8.28s-3.6-8.28-8.16-8.28h-23.88c-4.56,0-8.28,3.72-8.28,8.28s3.72,8.28,8.28,8.28Z"/><text class="cls-79" transform="translate(496.92 836.7)"><tspan x="0" y="0">S</tspan><tspan class="cls-45" x="4.2" y="0">t</tspan><tspan class="cls-44" x="6.99" y="0">o</tspan><tspan x="11.68" y="0">p</tspan></text><line class="cls-5" x1="504.72" y1="666.41" x2="504.72" y2="677.57"/><polygon class="cls-95" points="508.2 676.73 504.72 683.81 501.24 676.73 508.2 676.73"/><rect class="cls-4" x="599.04" y="631.25" width="40.44" height="35.16"/><text class="cls-79" transform="translate(612.12 641.22)"><tspan class="cls-55" x="0" y="0">C</tspan><tspan class="cls-86" x="4.99" y="0">E</tspan><tspan class="cls-80" x="9.03" y="0">O</tspan><tspan x="14.96" y="0"> </tspan></text><text class="cls-79" transform="translate(606 651.42)"><tspan class="cls-50" x="0" y="0">r</tspan><tspan class="cls-44" x="2.8" y="0">e</tspan><tspan class="cls-54" x="7.08" y="0">v</tspan><tspan class="cls-83" x="11.17" y="0">i</tspan><tspan class="cls-68" x="13.09" y="0">e</tspan><tspan class="cls-15" x="17.3" y="0">w</tspan><tspan class="cls-92" x="23.61" y="0">s</tspan><tspan x="27.05" y="0"> </tspan></text><text class="cls-79" transform="translate(611.64 661.62)"><tspan class="cls-32" x="0" y="0">c</tspan><tspan class="cls-50" x="3.8" y="0">a</tspan><tspan class="cls-92" x="7.92" y="0">s</tspan><tspan x="11.36" y="0">e</tspan></text><line class="cls-5" x1="619.2" y1="666.41" x2="619.2" y2="680.93"/><polygon class="cls-95" points="622.8 680.09 619.2 687.05 615.72 680.09 622.8 680.09"/><rect class="cls-4" x="599.04" y="687.05" width="40.44" height="24.84"/><text class="cls-79" transform="translate(612.12 697.02)"><tspan class="cls-55" x="0" y="0">C</tspan><tspan class="cls-86" x="4.99" y="0">E</tspan><tspan class="cls-80" x="9.03" y="0">O</tspan><tspan x="14.96" y="0"> </tspan></text><text class="cls-79" transform="translate(605.04 707.22)"><tspan class="cls-76" x="0" y="0">d</tspan><tspan class="cls-31" x="4.76" y="0">e</tspan><tspan class="cls-39" x="8.97" y="0">c</tspan><tspan class="cls-24" x="12.85" y="0">i</tspan><tspan class="cls-34" x="14.93" y="0">s</tspan><tspan class="cls-24" x="18.21" y="0">i</tspan><tspan class="cls-68" x="20.29" y="0">o</tspan><tspan x="24.91" y="0">n</tspan></text><line class="cls-5" x1="619.2" y1="711.89" x2="619.2" y2="726.41"/><polygon class="cls-95" points="622.8 725.57 619.2 732.65 615.72 725.57 622.8 725.57"/><rect class="cls-4" x="599.04" y="732.65" width="40.44" height="24.72"/><text class="cls-79" transform="translate(607.56 742.5)"><tspan class="cls-78" x="0" y="0">I</tspan><tspan class="cls-35" x="2.03" y="0">n</tspan><tspan class="cls-27" x="6.71" y="0">f</tspan><tspan class="cls-44" x="9.24" y="0">o</tspan><tspan class="cls-50" x="13.93" y="0">r</tspan><tspan class="cls-17" x="16.73" y="0">m</tspan><tspan class="cls-58" x="23.76" y="0"> </tspan></text><text class="cls-79" transform="translate(602.4 752.7)"><tspan class="cls-50" x="0" y="0">r</tspan><tspan class="cls-68" x="2.8" y="0">e</tspan><tspan class="cls-27" x="7" y="0">q</tspan><tspan class="cls-35" x="11.84" y="0">u</tspan><tspan class="cls-44" x="16.49" y="0">e</tspan><tspan class="cls-34" x="20.77" y="0">s</tspan><tspan class="cls-3" x="24.05" y="0">t</tspan><tspan class="cls-19" x="26.92" y="0">e</tspan><tspan class="cls-29" x="31.2" y="0">r</tspan></text><polyline class="cls-5" points="619.2 823.73 619.2 854.33 683.16 854.33"/><polygon class="cls-95" points="682.2 850.85 689.28 854.33 682.2 857.81 682.2 850.85"/><rect class="cls-4" x="689.28" y="841.97" width="40.44" height="24.72"/><text class="cls-79" transform="translate(691.68 856.98)"><tspan class="cls-55" x="0" y="0">C</tspan><tspan class="cls-83" x="4.99" y="0">l</tspan><tspan class="cls-68" x="6.93" y="0">o</tspan><tspan class="cls-92" x="11.54" y="0">s</tspan><tspan class="cls-31" x="14.99" y="0">e</tspan><tspan class="cls-26" x="19.2" y="0"> </tspan><tspan class="cls-80" x="20.95" y="0">c</tspan><tspan class="cls-50" x="24.83" y="0">a</tspan><tspan class="cls-78" x="28.94" y="0">s</tspan><tspan x="32.31" y="0">e</tspan></text><path class="cls-4" d="m697.56,901.37h23.88c4.56,0,8.28-3.72,8.28-8.28s-3.72-8.16-8.28-8.16h-23.88c-4.56,0-8.28,3.6-8.28,8.16s3.72,8.28,8.28,8.28Z"/><text class="cls-79" transform="translate(701.64 895.74)"><tspan x="0" y="0">S</tspan><tspan class="cls-45" x="4.2" y="0">t</tspan><tspan class="cls-44" x="6.99" y="0">o</tspan><tspan x="11.68" y="0">p</tspan></text><line class="cls-5" x1="709.44" y1="866.69" x2="709.44" y2="878.69"/><polygon class="cls-95" points="713.04 877.85 709.44 884.93 705.96 877.85 713.04 877.85"/><polyline class="cls-5" points="534.72 701.33 577.8 701.33 577.8 648.77 592.92 648.77"/><polygon class="cls-95" points="591.96 645.29 599.04 648.77 591.96 652.37 591.96 645.29"/><rect class="cls-8" x="572.76" y="678.17" width="9.96" height="10.2"/><text class="cls-79" transform="translate(572.88 685.98)"><tspan class="cls-27" x="0" y="0">N</tspan><tspan class="cls-29" x="5.64" y="0">o</tspan></text><polygon class="cls-4" points="579.96 823.73 658.56 823.73 658.56 778.13 579.96 795.05 579.96 823.73"/><text class="cls-79" transform="translate(586.8 801.9)"><tspan class="cls-32" x="0" y="0">R</tspan><tspan class="cls-19" x="4.57" y="0">e</tspan><tspan class="cls-32" x="8.85" y="0">c</tspan><tspan class="cls-44" x="12.65" y="0">o</tspan><tspan class="cls-42" x="17.35" y="0">r</tspan><tspan class="cls-76" x="20.14" y="0">d</tspan><tspan class="cls-81" x="24.91" y="0"> </tspan><tspan class="cls-42" x="26.66" y="0">a</tspan><tspan class="cls-35" x="30.78" y="0">n</tspan><tspan class="cls-80" x="35.46" y="0">y</tspan><tspan class="cls-26" x="39.54" y="0"> </tspan><tspan class="cls-72" x="41.29" y="0">f</tspan><tspan class="cls-76" x="43.81" y="0">u</tspan><tspan class="cls-50" x="48.47" y="0">r</tspan><tspan class="cls-88" x="51.26" y="0">t</tspan><tspan class="cls-27" x="54.05" y="0">h</tspan><tspan class="cls-19" x="58.81" y="0">e</tspan><tspan class="cls-42" x="63.1" y="0">r</tspan><tspan class="cls-58" x="65.89" y="0"> </tspan></text><text class="cls-79" transform="translate(603.12 812.1)"><tspan class="cls-50" x="0" y="0">a</tspan><tspan class="cls-32" x="4.12" y="0">c</tspan><tspan class="cls-3" x="7.92" y="0">t</tspan><tspan class="cls-83" x="10.78" y="0">i</tspan><tspan class="cls-44" x="12.7" y="0">o</tspan><tspan class="cls-35" x="17.39" y="0">n</tspan><tspan class="cls-78" x="22.08" y="0">s</tspan><tspan class="cls-9" x="25.44" y="0"> </tspan><tspan class="cls-90" x="27.27" y="0">&amp;</tspan><tspan x="32.33" y="0"> </tspan></text><text class="cls-79" transform="translate(591.6 822.3)"><tspan class="cls-76" x="0" y="0">d</tspan><tspan class="cls-50" x="4.76" y="0">a</tspan><tspan class="cls-3" x="8.88" y="0">t</tspan><tspan class="cls-31" x="11.74" y="0">e</tspan><tspan class="cls-9" x="15.95" y="0"> </tspan><tspan class="cls-32" x="17.78" y="0">c</tspan><tspan class="cls-50" x="21.58" y="0">ar</tspan><tspan class="cls-17" x="28.49" y="0">r</tspan><tspan class="cls-24" x="31.21" y="0">i</tspan><tspan class="cls-31" x="33.29" y="0">e</tspan><tspan class="cls-76" x="37.5" y="0">d</tspan><tspan class="cls-48" x="42.26" y="0"> </tspan><tspan class="cls-31" x="44.09" y="0">o</tspan><tspan class="cls-27" x="48.71" y="0">u</tspan><tspan x="53.44" y="0">t</tspan></text><line class="cls-5" x1="619.2" y1="757.37" x2="619.2" y2="780.41"/><polygon class="cls-95" points="622.8 779.57 619.2 786.65 615.72 779.57 622.8 779.57"/><rect class="cls-4" x="389.16" y="353.57" width="40.32" height="24.84"/><text class="cls-79" transform="translate(396 363.53)"><tspan class="cls-55" x="0" y="0">C</tspan><tspan class="cls-31" x="4.99" y="0">o</tspan><tspan class="cls-76" x="9.61" y="0">n</tspan><tspan class="cls-15" x="14.3" y="0">t</tspan><tspan class="cls-20" x="17.16" y="0">a</tspan><tspan class="cls-80" x="21.19" y="0">c</tspan><tspan class="cls-45" x="25.07" y="0">t</tspan><tspan class="cls-29" x="27.85" y="0"> </tspan></text><text class="cls-79" transform="translate(392.4 373.74)"><tspan class="cls-50" x="0" y="0">r</tspan><tspan class="cls-44" x="2.8" y="0">e</tspan><tspan class="cls-76" x="7.08" y="0">qu</tspan><tspan class="cls-44" x="16.49" y="0">e</tspan><tspan class="cls-34" x="20.77" y="0">s</tspan><tspan class="cls-3" x="24.05" y="0">t</tspan><tspan class="cls-31" x="26.92" y="0">o</tspan><tspan x="31.53" y="0">r</tspan></text><path class="cls-4" d="m387.6,478.73h23.88c4.56,0,8.28-3.72,8.28-8.28s-3.72-8.28-8.28-8.28h-23.88c-4.56,0-8.28,3.72-8.28,8.28s3.72,8.28,8.28,8.28Z"/><text class="cls-79" transform="translate(391.8 473.1)"><tspan x="0" y="0">S</tspan><tspan class="cls-45" x="4.2" y="0">t</tspan><tspan class="cls-44" x="6.99" y="0">o</tspan><tspan x="11.68" y="0">p</tspan></text><polygon class="cls-4" points="384.6 450.89 414.48 450.89 429.48 406.49 369.6 406.49 384.6 450.89"/><text class="cls-79" transform="translate(387.12 415.97)"><tspan class="cls-32" x="0" y="0">R</tspan><tspan class="cls-19" x="4.57" y="0">e</tspan><tspan class="cls-78" x="8.85" y="0">v</tspan><tspan class="cls-58" x="12.94" y="0">i</tspan><tspan class="cls-31" x="14.94" y="0">e</tspan><tspan class="cls-3" x="19.15" y="0">w</tspan><tspan x="25.46" y="0"> </tspan></text><text class="cls-79" transform="translate(393.12 426.18)"><tspan class="cls-50" x="0" y="0">a</tspan><tspan class="cls-76" x="4.12" y="0">nd</tspan><tspan class="cls-58" x="13.56" y="0"> </tspan></text><text class="cls-79" transform="translate(386.64 436.38)"><tspan class="cls-50" x="0" y="0">ma</tspan><tspan class="cls-76" x="11.23" y="0">nu</tspan><tspan class="cls-50" x="20.57" y="0">a</tspan><tspan class="cls-29" x="24.68" y="0">l </tspan></text><text class="cls-79" transform="translate(390.84 446.57)"><tspan class="cls-32" x="0" y="0">c</tspan><tspan x="3.8" y="0">l</tspan><tspan class="cls-44" x="5.81" y="0">o</tspan><tspan class="cls-34" x="10.51" y="0">s</tspan><tspan x="13.79" y="0">e</tspan></text><line class="cls-5" x1="399.6" y1="450.89" x2="399.6" y2="456.05"/><polygon class="cls-95" points="403.08 455.09 399.6 462.17 396 455.09 403.08 455.09"/><polygon class="cls-4" points="389.16 319.13 409.32 306.77 429.48 319.13 409.32 331.49 389.16 319.13"/><text class="cls-79" transform="translate(395.04 321.78)"><tspan class="cls-55" x="0" y="0">C</tspan><tspan class="cls-83" x="4.99" y="0">l</tspan><tspan class="cls-50" x="6.93" y="0">ar</tspan><tspan class="cls-58" x="13.84" y="0">i</tspan><tspan class="cls-20" x="15.83" y="0">fi</tspan><tspan class="cls-44" x="20.21" y="0">e</tspan><tspan x="24.5" y="0">d</tspan></text><line class="cls-5" x1="338.88" y1="285.89" x2="338.88" y2="337.61"/><polygon class="cls-95" points="342.36 336.77 338.88 343.85 335.28 336.77 342.36 336.77"/><line class="cls-5" x1="368.76" y1="365.93" x2="382.92" y2="365.93"/><polygon class="cls-95" points="382.08 362.45 389.16 365.93 382.08 369.53 382.08 362.45"/><line class="cls-5" x1="409.32" y1="353.57" x2="409.32" y2="337.73"/><polygon class="cls-95" points="405.84 338.57 409.32 331.49 412.8 338.57 405.84 338.57"/><polyline class="cls-5" points="409.32 306.77 409.32 263.69 365.16 263.69"/><polygon class="cls-95" points="366.12 267.17 359.04 263.69 366.12 260.21 366.12 267.17"/><rect class="cls-8" x="399.84" y="258.65" width="11.64" height="10.2"/><text class="cls-79" transform="translate(399.84 266.34)"><tspan class="cls-44" x="0" y="0">Ye</tspan><tspan class="cls-29" x="8.91" y="0">s</tspan></text><polyline class="cls-5" points="429.48 319.13 440.16 319.13 440.16 395.81 399.6 395.81 399.6 400.37"/><polygon class="cls-95" points="403.08 399.41 399.6 406.49 396 399.41 403.08 399.41"/><rect class="cls-8" x="435.12" y="372.65" width="9.96" height="10.2"/><text class="cls-79" transform="translate(435.24 380.45)"><tspan class="cls-27" x="0" y="0">N</tspan><tspan class="cls-29" x="5.64" y="0">o</tspan></text><text class="cls-79" transform="translate(12.24 31.61)"><tspan class="cls-48" x="0" y="0">1</tspan><tspan class="cls-23" x="4.4" y="0">.</tspan><tspan class="cls-67" x="6.14" y="0"> </tspan><tspan class="cls-40" x="7.98" y="0">R</tspan><tspan class="cls-69" x="12.46" y="0">e</tspan><tspan class="cls-23" x="16.83" y="0">c</tspan><tspan class="cls-31" x="20.63" y="0">e</tspan><tspan x="24.84" y="0">i</tspan><tspan class="cls-76" x="26.83" y="0">p</tspan><tspan class="cls-15" x="31.64" y="0">t</tspan><tspan class="cls-87" x="34.5" y="0"> </tspan><tspan class="cls-23" x="36.25" y="0">&amp;</tspan><tspan class="cls-87" x="41.39" y="0"> </tspan><tspan class="cls-2" x="43.15" y="0">L</tspan><tspan class="cls-31" x="47.25" y="0">o</tspan><tspan class="cls-65" x="51.86" y="0">g</tspan><tspan class="cls-30" x="56.54" y="0">g</tspan><tspan x="61.38" y="0">i</tspan><tspan class="cls-77" x="63.38" y="0">n</tspan><tspan x="68.06" y="0">g</tspan></text><text class="cls-79" transform="translate(2.52 7.13)"><tspan class="cls-73" x="0" y="0">T</tspan><tspan class="cls-41" x="4.25" y="0">a</tspan><tspan class="cls-15" x="8.28" y="0">k</tspan><tspan class="cls-73" x="12.32" y="0">e</tspan><tspan class="cls-76" x="16.61" y="0">d</tspan><tspan class="cls-91" x="21.37" y="0">o</tspan><tspan class="cls-38" x="25.99" y="0">w</tspan><tspan class="cls-77" x="32.3" y="0">n</tspan><tspan class="cls-87" x="36.99" y="0"> </tspan><tspan class="cls-36" x="38.74" y="0">–</tspan></text><text class="cls-79" transform="translate(44.4 7.13)"><tspan x="0" y="0"> </tspan></text><text class="cls-79" transform="translate(46.32 7.13)"><tspan class="cls-27" x="0" y="0">D</tspan><tspan class="cls-23" x="5.71" y="0">y</tspan><tspan class="cls-77" x="9.7" y="0">n</tspan><tspan class="cls-37" x="14.39" y="0">a</tspan><tspan class="cls-7" x="18.51" y="0">m</tspan><tspan class="cls-16" x="25.54" y="0">i</tspan><tspan class="cls-23" x="27.62" y="0">c</tspan><tspan class="cls-34" x="31.42" y="0">s</tspan><tspan class="cls-85" x="34.7" y="0"> </tspan><tspan class="cls-48" x="36.62" y="0">3</tspan><tspan class="cls-87" x="41.02" y="0">6</tspan><tspan class="cls-67" x="45.34" y="0">5</tspan><tspan class="cls-74" x="49.73" y="0"> </tspan><tspan class="cls-37" x="51.4" y="0">A</tspan><tspan class="cls-77" x="56.63" y="0">u</tspan><tspan class="cls-38" x="61.28" y="0">t</tspan><tspan class="cls-91" x="64.14" y="0">o</tspan><tspan class="cls-50" x="68.76" y="0">ma</tspan><tspan class="cls-59" x="79.99" y="0">t</tspan><tspan class="cls-84" x="82.78" y="0">i</tspan><tspan class="cls-91" x="84.86" y="0">o</tspan><tspan class="cls-76" x="89.48" y="0">n</tspan><tspan class="cls-6" x="94.16" y="0"> </tspan><tspan class="cls-70" x="95.92" y="0">W</tspan><tspan class="cls-14" x="103.12" y="0">o</tspan><tspan class="cls-52" x="107.9" y="0">r</tspan><tspan class="cls-47" x="110.54" y="0">k</tspan><tspan x="114.66" y="0">fl</tspan><tspan class="cls-14" x="119.12" y="0">o</tspan><tspan x="123.9" y="0">w</tspan></text><text class="cls-79" transform="translate(120.12 31.61)"><tspan class="cls-48" x="0" y="0">2</tspan><tspan class="cls-23" x="4.4" y="0">.</tspan><tspan class="cls-74" x="6.14" y="0"> </tspan><tspan class="cls-37" x="7.81" y="0">E</tspan><tspan class="cls-27" x="12.01" y="0">n</tspan><tspan class="cls-76" x="16.78" y="0">qu</tspan><tspan class="cls-41" x="26.18" y="0">i</tspan><tspan class="cls-89" x="28.1" y="0">r</tspan><tspan class="cls-23" x="30.98" y="0">y</tspan><tspan class="cls-6" x="34.98" y="0"> </tspan><tspan class="cls-49" x="36.73" y="0">D</tspan><tspan class="cls-31" x="42.44" y="0">e</tspan><tspan class="cls-38" x="46.65" y="0">t</tspan><tspan class="cls-50" x="49.51" y="0">a</tspan><tspan x="53.63" y="0">i</tspan><tspan class="cls-41" x="55.62" y="0">l</tspan><tspan class="cls-25" x="57.56" y="0">s</tspan><tspan class="cls-48" x="104.62" y="0">3</tspan><tspan class="cls-23" x="109.02" y="0">.</tspan><tspan class="cls-48" x="110.77" y="0"> </tspan><tspan class="cls-73" x="112.6" y="0">T</tspan><tspan class="cls-83" x="116.85" y="0">a</tspan><tspan class="cls-38" x="120.88" y="0">k</tspan><tspan class="cls-31" x="124.92" y="0">e</tspan><tspan class="cls-27" x="129.13" y="0">d</tspan><tspan class="cls-31" x="133.97" y="0">o</tspan><tspan class="cls-15" x="138.59" y="0">w</tspan><tspan class="cls-1" x="144.9" y="0">n</tspan><tspan class="cls-67" x="229.67" y="0">4</tspan><tspan class="cls-80" x="234.07" y="0">.</tspan><tspan class="cls-87" x="235.89" y="0"> </tspan><tspan class="cls-93" x="237.65" y="0">I</tspan><tspan class="cls-49" x="239.68" y="0">n</tspan><tspan class="cls-93" x="244.44" y="0">v</tspan><tspan class="cls-28" x="248.53" y="0">e</tspan><tspan class="cls-93" x="252.74" y="0">s</tspan><tspan class="cls-38" x="256.11" y="0">t</tspan><tspan x="258.97" y="0">i</tspan><tspan class="cls-21" x="260.96" y="0">g</tspan><tspan class="cls-50" x="265.64" y="0">a</tspan><tspan class="cls-53" x="269.75" y="0">t</tspan><tspan class="cls-82" x="272.62" y="0">e</tspan><tspan class="cls-87" x="351.63" y="0">5</tspan><tspan class="cls-80" x="355.95" y="0">.</tspan><tspan class="cls-87" x="357.77" y="0"> </tspan><tspan class="cls-44" x="359.53" y="0">T</tspan><tspan class="cls-12" x="363.78" y="0">a</tspan><tspan class="cls-38" x="367.82" y="0">k</tspan><tspan class="cls-44" x="371.86" y="0">e</tspan><tspan class="cls-77" x="376.14" y="0">d</tspan><tspan class="cls-91" x="380.91" y="0">o</tspan><tspan class="cls-15" x="385.53" y="0">w</tspan><tspan class="cls-76" x="391.84" y="0">n</tspan><tspan class="cls-87" x="396.53" y="0"> </tspan><tspan class="cls-85" x="398.28" y="0">P</tspan><tspan class="cls-83" x="402.92" y="0">a</tspan><tspan class="cls-27" x="406.96" y="0">n</tspan><tspan class="cls-68" x="411.72" y="0">e</tspan><tspan class="cls-33" x="415.93" y="0">l</tspan><tspan class="cls-67" x="476.05" y="0">6</tspan><tspan class="cls-80" x="480.45" y="0">.</tspan><tspan class="cls-87" x="482.27" y="0"> </tspan><tspan class="cls-71" x="484.02" y="0">C</tspan><tspan class="cls-46" x="489.02" y="0">E</tspan><tspan class="cls-80" x="493.06" y="0">O</tspan><tspan class="cls-87" x="498.99" y="0"> </tspan><tspan class="cls-11" x="500.74" y="0">R</tspan><tspan class="cls-31" x="505.39" y="0">e</tspan><tspan class="cls-63" x="509.59" y="0">v</tspan><tspan class="cls-41" x="513.76" y="0">i</tspan><tspan class="cls-91" x="515.68" y="0">e</tspan><tspan x="519.89" y="0">w</tspan></text><line class="cls-5" x1="198" y1="16.73" x2="198" y2="916.25"/><line class="cls-5" x1="293.88" y1="16.73" x2="293.88" y2="916.25"/><line class="cls-5" x1="449.64" y1="16.73" x2="449.64" y2="916.25"/><line class="cls-5" x1="557.52" y1="16.73" x2="557.52" y2="916.25"/><line class="cls-5" x1="1.32" y1="41.21" x2="749.16" y2="41.21"/><line class="cls-5" x1=".48" y1="16.73" x2="749.16" y2="16.73"/><line class="cls-5" x1="672.24" y1="16.73" x2="672.24" y2="916.25"/><line class="cls-5" x1="102.24" y1="16.73" x2="102.24" y2="916.25"/><line class="cls-5" x1=".48" y1="16.73" x2=".6" y2="916.25"/><text class="cls-79" transform="translate(688.2 31.61)"><tspan class="cls-48" x="0" y="0">7</tspan><tspan class="cls-32" x="4.4" y="0">.</tspan><tspan class="cls-66" x="6.14" y="0"> </tspan><tspan class="cls-55" x="7.81" y="0">C</tspan><tspan class="cls-50" x="12.81" y="0">a</tspan><tspan class="cls-34" x="16.92" y="0">s</tspan><tspan class="cls-19" x="20.2" y="0">e</tspan><tspan class="cls-48" x="24.49" y="0"> </tspan><tspan class="cls-62" x="26.32" y="0">C</tspan><tspan class="cls-84" x="31.15" y="0">l</tspan><tspan class="cls-31" x="33.25" y="0">o</tspan><tspan class="cls-78" x="37.87" y="0">s</tspan><tspan x="41.23" y="0">e</tspan></text><line class="cls-5" x1="749.16" y1="16.73" x2="749.16" y2="916.25"/><polygon class="cls-4" points="489.72 800.09 519.72 800.09 534.72 755.69 474.72 755.69 489.72 800.09"/><text class="cls-79" transform="translate(492.6 775.38)"><tspan class="cls-15" x="0" y="0">M</tspan><tspan class="cls-52" x="6.89" y="0">a</tspan><tspan class="cls-18" x="10.85" y="0">n</tspan><tspan class="cls-35" x="15.69" y="0">u</tspan><tspan x="20.35" y="0">a</tspan></text><text class="cls-79" transform="translate(494.04 785.58)"><tspan x="0" y="0">l</tspan><tspan class="cls-6" x="2.01" y="0"> </tspan><tspan class="cls-32" x="3.77" y="0">c</tspan><tspan x="7.57" y="0">l</tspan><tspan class="cls-44" x="9.58" y="0">o</tspan><tspan class="cls-92" x="14.27" y="0">s</tspan><tspan x="17.71" y="0">e</tspan></text><line class="cls-5" x1="504.72" y1="800.09" x2="504.72" y2="819.65"/><polygon class="cls-95" points="508.2 818.81 504.72 825.77 501.24 818.81 508.2 818.81"/></g></svg>